/* XPM */
static char *monsterLeft_xpm[] = {
/* columns rows colors chars-per-pixel */
"100 100 4 1 ",
"  c #285542",
". c #008F53",
"X c #4AB186",
"o c None",
/* pixels */
"oooooooooooooooooooooooooooooooooooooooooooooooooooooooooooooooooooooooooooooooooooooooooooooooooooo",
"oooooooooooooooooooooooooooooooooooooooooooooooooooooooooooooooooooooooooooooooooooooooooooooooooooo",
"oooooooooooooooooooooooooooooooooooooooooooooooooooooooooooooooooooooooooooooooooooooooooooooooooooo",
"oooooooooooooooooooooooooooooooooooooooooooooooooooooooooooooooooooooooooooooooooooooooooooooooooooo",
"oooooooooooooooooooooooooooooooooooooooooooooooooooooooooooooooooooooooooooooooooooooooooooooooooooo",
"oooooooooooooooooooooooooooooooooooooooooooooooooooooooooooooooooooooooooooooooooooooooooooooooooooo",
"oooooooooooooooooooooooooooooooooooooooooooooooooooooooooooooooooooooooooooooooooooooooooooooooooooo",
"oooooooooooooooooooooooooooooooooooooooooooooooooooooooooooooooooooooooooooooooooooooooooooooooooooo",
"oooooooooooooooooooooooooooooooooooooooooooooooooooooooooooooooooooooooooooooooooooooooooooooooooooo",
"oooooooooooooooooooooooooooooooooooooooooooooooooooooooooooooooooooooooooooooooooooooooooooooooooooo",
"oooooooooooooooooooooooooooooooooooooooooooooooooooooooooooooooooooooooooooooooooooooooooooooooooooo",
"oooooooooooooooooooooooooooooooooooooooooooooooooooooooooooooooooooooooooooooooooooooooooooooooooooo",
"ooooooooooooooooooooooooooooooo...................oooooooooooooooooooooooooooooooooooooooooooooooooo",
"ooooooooooooooooooooooooooooooo...................oooooooooooooooooooooooooooooooooooooooooooooooooo",
"ooooooooooooooooooooooooooooooo...................oooooooooooooooooooooooooooooooooooooooooooooooooo",
"ooooooooooooooooooooooooooooooo...................oooooooooooooooooooooooooooooooooooooooooooooooooo",
"oooooooooooooooooooooooooooo......XXXXXXXXXXXXX......ooooooooooooooooooooooooooooooooooooooooooooooo",
"oooooooooooooooooooooooooooo......XXXXXXXXXXXXX......ooooooooooooooooooooooooooooooooooooooooooooooo",
"oooooooooooooooooooooooooooo......XXXXXXXXXXXXX......ooooooooooooooooooooooooooooooooooooooooooooooo",
"ooooooooooooooooooooooooo......XXXXXXXXXXXXXXXXXXX......oooooooooooooooooooooooooooooooooooooooooooo",
"ooooooooooooooooooooooooo......XXXXXXXXXXXXXXXXXXX......oooooooooooooooooooooooooooooooooooooooooooo",
"ooooooooooooooooooooooooo......XXXXXXXXXXXXXXXXXXX......oooooooooooooooooooooooooooooooooooooooooooo",
"oooooooooooooooooooooo......XXXXXXXXXXXXXXXXXXXXXXXXX......ooooooooooooooooooooooooooooooooooooooooo",
"oooooooooooooooooooooo......XXXXXXXXXXXXXXXXXXXXXXXXX......ooooooooooooooooooooooooooooooooooooooooo",
"oooooooooooooooooooooo......XXXXXXXXXXXXXXXXXXXXXXXXX......ooooooooooooooooooooooooooooooooooooooooo",
"oooooooooooooooooooooo...XXXXXXXXXXXXXXXXXXXXXXXXXXXXXXX.......ooooooooooooooooooooooooooooooooooooo",
"oooooooooooooooooooooo...XXXXXXXXXXXXXXXXXXX   XXXXXXXXX.......ooooooooooooooooooooooooooooooooooooo",
"oooooooooooooooooooooo...XXXXXXXXXXXXXXXXXXX   XXXXXXXXX.......ooooooooooooooooooooooooooooooooooooo",
"ooooooooooooooooooo...XXX   XXXXXXXXXXXXX      XXXXXXXXXXXX....ooooooooooooooooooooooooooooooooooooo",
"ooooooooooooooooooo...XXX   XXXXXXXXXXXXX      XXXXXXXXXXXX....ooooooooooooooooooooooooooooooooooooo",
"ooooooooooooooooooo...XXX   XXXXXXXXXXXXX      XXXXXXXXXXXX....ooooooooooooooooooooooooooooooooooooo",
"ooooooooooooooooooo...XXX      XXXXXXX         XXXXXXXXXXXX....ooooooooooooooooooooooooooooooooooooo",
"ooooooooooooooooooo...XXX      XXXXXXX         XXXXXXXXXXXX....ooooooooooooooooooooooooooooooooooooo",
"ooooooooooooooooooo...XXX      XXXXXXX         XXXXXXXXXXXX....ooooooooooooooooooooooooooooooooooooo",
"ooooooooooooooooooo...XXX      XXXXXXX         XXXXXXXXXXXX....ooooooooooooooooooooooooooooooooooooo",
"ooooooooooooooooooo...XXX      XXXXXXX         XXXXXXXXXXXX....ooooooooooooooooooooooooooooooooooooo",
"ooooooooooooooooooo...XXX      XXXXXXX         XXXXXXXXXXXX....ooooooooooooooooooooooooooooooooooooo",
"ooooooooooooooooooo...XXXXXXXXXXXXXXXXXXXXXXXXXXXXXXXXXXXXX.......oooooooooooooooooooooooooooooooooo",
"ooooooooooooooooooo...XXXXXXXXXXXXXXXXXXXXXXXXXXXXXXXXXXXXX.......oooooooooooooooooooooooooooooooooo",
"ooooooooooooooooooo...XXXXXXXXXXXXXXXXXXXXXXXXXXXXXXXXXXXXX.......oooooooooooooooooooooooooooooooooo",
"ooooooooooooooooooo...XXXXXXXXXXXXXXXXXXXXXXXXXXXXXXXXXXXXX.......oooooooooooooooooooooooooooooooooo",
"oooooooooooooooo......XXXXXXXXXXXXXXXXXXXXXXXXXXXXXXXXXXXXXXXXX...oooooooooooooooooooooooooooooooooo",
"oooooooooooooooo......XXXXXXXXXXXXXXXXXXXXXXXXXXXXXXXXXXXXXXXXX...oooooooooooooooooooooooooooooooooo",
"oooooooooooooooo......XXXXXXXXXXXXXXXXXXXXXXXXXXXXXXXXXXXXXXXXX...oooooooooooooooooooooooooooooooooo",
"oooooooooooooooo...XXXXXXXXX   XXXXXXX   XXXXXXXXXXXXXXXXXXXXXX...oooooooooooooooooooooooooooooooooo",
"oooooooooooooooo...XXXXXXXXX   XXXXXXX   XXXXXXXXXXXXXXXXXXXXXX...oooooooooooooooooooooooooooooooooo",
"oooooooooooooooo...XXXXXXXXX   XXXXXXX   XXXXXXXXXXXXXXXXXXXXXX...oooooooooooooooooooooooooooooooooo",
"oooooooooooooooo...XXXXXX      XXX          XXXXXXXXXXXXXXXXXXX...oooooooooooooooooooooooooooooooooo",
"oooooooooooooooo...XXXXXX      XXX          XXXXXXXXXXXXXXXXXXX...oooooooooooooooooooooooooooooooooo",
"oooooooooooooooo...XXXXXX      XXX          XXXXXXXXXXXXXXXXXXX...oooooooooooooooooooooooooooooooooo",
"oooooooooooooooo...XXX         XXX             XXXXXXXXXXXXXXXX...oooooooooooooooooooooooooooooooooo",
"oooooooooooooooo...XXX         XXX             XXXXXXXXXXXXXXXX...oooooooooooooooooooooooooooooooooo",
"oooooooooooooooo...XXX         XXX             XXXXXXXXXXXXXXXX...oooooooooooooooooooooooooooooooooo",
"oooooooooooooooo...XXX         XXX                XXXXXXXXXXXXXXXX...ooooooooooooooooooooooooooooooo",
"oooooooooooooooo...XXX         XXX                XXXXXXXXXXXXXXXX...ooooooooooooooooooooooooooooooo",
"oooooooooooooooo...XXX         XXX                XXXXXXXXXXXXXXXX...ooooooooooooooooooooooooooooooo",
"oooooooooooooooo...XXX         XXX                XXXXXXXXXXXXXXXX...ooooooooooooooooooooooooooooooo",
"oooooooooooooooo...XXX         XXX                XXXXXXXXXXXXXXXX...ooooooooooooooooooooooooooooooo",
"oooooooooooooooo...XXX         XXX                XXXXXXXXXXXXXXXX...ooooooooooooooooooooooooooooooo",
"oooooooooooooooo...XXX         XXX                   XXXXXXXXXXXXX......oooooooooooooooooooooooooooo",
"oooooooooooooooo...XXX         XXX                   XXXXXXXXXXXXX......oooooooooooooooooooooooooooo",
"oooooooooooooooo...XXX         XXX                   XXXXXXXXXXXXX......oooooooooooooooooooooooooooo",
"oooooooooooooooo...XXX         XXXXXXX                  XXXXXXXXXX......oooooooooooooooooooooooooooo",
"oooooooooooooooo...XXX         XXXXXXX                  XXXXXXXXXX......oooooooooooooooooooooooooooo",
"oooooooooooooooo...XXX         XXXXXXX                  XXXXXXXXXX......oooooooooooooooooooooooooooo",
"oooooooooooooooo...XXX         XXXXXXX                  XXXXXXXXXX......oooooooooooooooooooooooooooo",
"oooooooooooooooo...XXXXXX         XXXXXXX               XXXXXXXXXX.........ooooooooooooooooooooooooo",
"oooooooooooooooo...XXXXXX         XXXXXXX               XXXXXXXXXX.........ooooooooooooooooooooooooo",
"oooooooooooooooo...XXXXXX         XXXXXXX               XXXXXXXXXX.........ooooooooooooooooooooooooo",
"oooooooooooooooo......XXX         XXXXXXX               XXXXXXXXXXXXX......ooooooooooooooooooooooooo",
"oooooooooooooooo......XXX         XXXXXXX               XXXXXXXXXXXXX......ooooooooooooooooooooooooo",
"oooooooooooooooo......XXX         XXXXXXX               XXXXXXXXXXXXX......ooooooooooooooooooooooooo",
"ooooooooooooooooooo...XXX             XXXXXX         XXXXXXXXXX...............oooooooooooooooooooooo",
"ooooooooooooooooooo...XXX             XXXXXX         XXXXXXXXXX...............oooooooooooooooooooooo",
"ooooooooooooooooooo...XXX             XXXXXX         XXXXXXXXXX...............oooooooooooooooooooooo",
"ooooooooooooooooooo...XXXXXX          XXXXXXXXXXXXXXXXXXXXXXXXX..................ooooooooooooooooooo",
"ooooooooooooooooooo...XXXXXX          XXXXXXXXXXXXXXXXXXXXXXXXX..................ooooooooooooooooooo",
"ooooooooooooooooooo...XXXXXX          XXXXXXXXXXXXXXXXXXXXXXXXX..................ooooooooooooooooooo",
"ooooooooooooooooooo......XXXXXXXXXXXXXXXXXXXXXXXXXXXXXXX............................oooooooooooooooo",
"ooooooooooooooooooo......XXXXXXXXXXXXXXXXXXXXXXXXXXXXXXX............................oooooooooooooooo",
"ooooooooooooooooooo......XXXXXXXXXXXXXXXXXXXXXXXXXXXXXXX............................oooooooooooooooo",
"ooooooooooooooooooo.................................................................oooooooooooooooo",
"ooooooooooooooooooo.................................................................oooooooooooooooo",
"ooooooooooooooooooo.................................................................oooooooooooooooo",
"ooooooooooooooooooo.....................................................................oooooooooooo",
"ooooooooooooooooooo.....................................................................oooooooooooo",
"ooooooooooooooooooo.....................................................................oooooooooooo",
"oooooooooooooooooooooooooooooooooooooooooooooooooooooooooooooooooooooooooooooooooooooooooooooooooooo",
"oooooooooooooooooooooooooooooooooooooooooooooooooooooooooooooooooooooooooooooooooooooooooooooooooooo",
"oooooooooooooooooooooooooooooooooooooooooooooooooooooooooooooooooooooooooooooooooooooooooooooooooooo",
"oooooooooooooooooooooooooooooooooooooooooooooooooooooooooooooooooooooooooooooooooooooooooooooooooooo",
"oooooooooooooooooooooooooooooooooooooooooooooooooooooooooooooooooooooooooooooooooooooooooooooooooooo",
"oooooooooooooooooooooooooooooooooooooooooooooooooooooooooooooooooooooooooooooooooooooooooooooooooooo",
"oooooooooooooooooooooooooooooooooooooooooooooooooooooooooooooooooooooooooooooooooooooooooooooooooooo",
"oooooooooooooooooooooooooooooooooooooooooooooooooooooooooooooooooooooooooooooooooooooooooooooooooooo",
"oooooooooooooooooooooooooooooooooooooooooooooooooooooooooooooooooooooooooooooooooooooooooooooooooooo",
"oooooooooooooooooooooooooooooooooooooooooooooooooooooooooooooooooooooooooooooooooooooooooooooooooooo",
"oooooooooooooooooooooooooooooooooooooooooooooooooooooooooooooooooooooooooooooooooooooooooooooooooooo",
"oooooooooooooooooooooooooooooooooooooooooooooooooooooooooooooooooooooooooooooooooooooooooooooooooooo",
"oooooooooooooooooooooooooooooooooooooooooooooooooooooooooooooooooooooooooooooooooooooooooooooooooooo"
};
