/* XPM */
static char *monsterRight_xpm[] = {
/* columns rows colors chars-per-pixel */
"100 100 4 1 ",
"  c #285542",
". c #008F53",
"X c #4AB186",
"o c None",
/* pixels */
"oooooooooooooooooooooooooooooooooooooooooooooooooooooooooooooooooooooooooooooooooooooooooooooooooooo",
"oooooooooooooooooooooooooooooooooooooooooooooooooooooooooooooooooooooooooooooooooooooooooooooooooooo",
"oooooooooooooooooooooooooooooooooooooooooooooooooooooooooooooooooooooooooooooooooooooooooooooooooooo",
"oooooooooooooooooooooooooooooooooooooooooooooooooooooooooooooooooooooooooooooooooooooooooooooooooooo",
"oooooooooooooooooooooooooooooooooooooooooooooooooooooooooooooooooooooooooooooooooooooooooooooooooooo",
"oooooooooooooooooooooooooooooooooooooooooooooooooooooooooooooooooooooooooooooooooooooooooooooooooooo",
"oooooooooooooooooooooooooooooooooooooooooooooooooooooooooooooooooooooooooooooooooooooooooooooooooooo",
"oooooooooooooooooooooooooooooooooooooooooooooooooooooooooooooooooooooooooooooooooooooooooooooooooooo",
"oooooooooooooooooooooooooooooooooooooooooooooooooooooooooooooooooooooooooooooooooooooooooooooooooooo",
"oooooooooooooooooooooooooooooooooooooooooooooooooooooooooooooooooooooooooooooooooooooooooooooooooooo",
"oooooooooooooooooooooooooooooooooooooooooooooooooooooooooooooooooooooooooooooooooooooooooooooooooooo",
"oooooooooooooooooooooooooooooooooooooooooooooooooooooooooooooooooooooooooooooooooooooooooooooooooooo",
"oooooooooooooooooooooooooooooooooooooooooooooooooo...................ooooooooooooooooooooooooooooooo",
"oooooooooooooooooooooooooooooooooooooooooooooooooo...................ooooooooooooooooooooooooooooooo",
"oooooooooooooooooooooooooooooooooooooooooooooooooo...................ooooooooooooooooooooooooooooooo",
"oooooooooooooooooooooooooooooooooooooooooooooooooo...................ooooooooooooooooooooooooooooooo",
"ooooooooooooooooooooooooooooooooooooooooooooooo......XXXXXXXXXXXXX......oooooooooooooooooooooooooooo",
"ooooooooooooooooooooooooooooooooooooooooooooooo......XXXXXXXXXXXXX......oooooooooooooooooooooooooooo",
"ooooooooooooooooooooooooooooooooooooooooooooooo......XXXXXXXXXXXXX......oooooooooooooooooooooooooooo",
"oooooooooooooooooooooooooooooooooooooooooooo......XXXXXXXXXXXXXXXXXXX......ooooooooooooooooooooooooo",
"oooooooooooooooooooooooooooooooooooooooooooo......XXXXXXXXXXXXXXXXXXX......ooooooooooooooooooooooooo",
"oooooooooooooooooooooooooooooooooooooooooooo......XXXXXXXXXXXXXXXXXXX......ooooooooooooooooooooooooo",
"ooooooooooooooooooooooooooooooooooooooooo......XXXXXXXXXXXXXXXXXXXXXXXXX......oooooooooooooooooooooo",
"ooooooooooooooooooooooooooooooooooooooooo......XXXXXXXXXXXXXXXXXXXXXXXXX......oooooooooooooooooooooo",
"ooooooooooooooooooooooooooooooooooooooooo......XXXXXXXXXXXXXXXXXXXXXXXXX......oooooooooooooooooooooo",
"oooooooooooooooooooooooooooooooooooooo......XXXXXXXXXXXXXXXXXXXXXXXXXXXXXXX...oooooooooooooooooooooo",
"oooooooooooooooooooooooooooooooooooooo......XXXXXXXXX   XXXXXXXXXXXXXXXXXXX...oooooooooooooooooooooo",
"oooooooooooooooooooooooooooooooooooooo......XXXXXXXXX   XXXXXXXXXXXXXXXXXXX...oooooooooooooooooooooo",
"oooooooooooooooooooooooooooooooooooooo...XXXXXXXXXXXX      XXXXXXXXXXXXX   XXX...ooooooooooooooooooo",
"oooooooooooooooooooooooooooooooooooooo...XXXXXXXXXXXX      XXXXXXXXXXXXX   XXX...ooooooooooooooooooo",
"oooooooooooooooooooooooooooooooooooooo...XXXXXXXXXXXX      XXXXXXXXXXXXX   XXX...ooooooooooooooooooo",
"oooooooooooooooooooooooooooooooooooooo...XXXXXXXXXXXX          XXXXXX      XXX...ooooooooooooooooooo",
"oooooooooooooooooooooooooooooooooooooo...XXXXXXXXXXXX          XXXXXX      XXX...ooooooooooooooooooo",
"oooooooooooooooooooooooooooooooooooooo...XXXXXXXXXXXX          XXXXXX      XXX...ooooooooooooooooooo",
"oooooooooooooooooooooooooooooooooooooo...XXXXXXXXXXXX          XXXXXX      XXX...ooooooooooooooooooo",
"oooooooooooooooooooooooooooooooooooooo...XXXXXXXXXXXX          XXXXXX      XXX...ooooooooooooooooooo",
"oooooooooooooooooooooooooooooooooooooo...XXXXXXXXXXXX          XXXXXX      XXX...ooooooooooooooooooo",
"oooooooooooooooooooooooooooooooooo.......XXXXXXXXXXXXXXXXXXXXXXXXXXXXXXXXXXXXX...ooooooooooooooooooo",
"oooooooooooooooooooooooooooooooooo.......XXXXXXXXXXXXXXXXXXXXXXXXXXXXXXXXXXXXX...ooooooooooooooooooo",
"oooooooooooooooooooooooooooooooooo.......XXXXXXXXXXXXXXXXXXXXXXXXXXXXXXXXXXXXX...ooooooooooooooooooo",
"oooooooooooooooooooooooooooooooooo.......XXXXXXXXXXXXXXXXXXXXXXXXXXXXXXXXXXXXX...ooooooooooooooooooo",
"oooooooooooooooooooooooooooooooooo....XXXXXXXXXXXXXXXXXXXXXXXXXXXXXXXXXXXXXXXX......oooooooooooooooo",
"oooooooooooooooooooooooooooooooooo....XXXXXXXXXXXXXXXXXXXXXXXXXXXXXXXXXXXXXXXX......oooooooooooooooo",
"oooooooooooooooooooooooooooooooooo....XXXXXXXXXXXXXXXXXXXXXXXXXXXXXXXXXXXXXXXX......oooooooooooooooo",
"oooooooooooooooooooooooooooooooooo....XXXXXXXXXXXXXXXXXXXXX    XXXXXX   XXXXXXXXX...oooooooooooooooo",
"oooooooooooooooooooooooooooooooooo....XXXXXXXXXXXXXXXXXXXXX    XXXXXX   XXXXXXXXX...oooooooooooooooo",
"oooooooooooooooooooooooooooooooooo....XXXXXXXXXXXXXXXXXXXXX    XXXXXX   XXXXXXXXX...oooooooooooooooo",
"oooooooooooooooooooooooooooooooooo....XXXXXXXXXXXXXXXXXX          XXX      XXXXXX...oooooooooooooooo",
"oooooooooooooooooooooooooooooooooo....XXXXXXXXXXXXXXXXXX          XXX      XXXXXX...oooooooooooooooo",
"oooooooooooooooooooooooooooooooooo....XXXXXXXXXXXXXXXXXX          XXX      XXXXXX...oooooooooooooooo",
"oooooooooooooooooooooooooooooooooo....XXXXXXXXXXXXXXX             XXX         XXX...oooooooooooooooo",
"oooooooooooooooooooooooooooooooooo....XXXXXXXXXXXXXXX             XXX         XXX...oooooooooooooooo",
"oooooooooooooooooooooooooooooooooo....XXXXXXXXXXXXXXX             XXX         XXX...oooooooooooooooo",
"ooooooooooooooooooooooooooooooo...XXXXXXXXXXXXXXXX                XXX         XXX...oooooooooooooooo",
"ooooooooooooooooooooooooooooooo...XXXXXXXXXXXXXXXX                XXX         XXX...oooooooooooooooo",
"ooooooooooooooooooooooooooooooo...XXXXXXXXXXXXXXXX                XXX         XXX...oooooooooooooooo",
"ooooooooooooooooooooooooooooooo...XXXXXXXXXXXXXXXX                XXX         XXX...oooooooooooooooo",
"ooooooooooooooooooooooooooooooo...XXXXXXXXXXXXXXXX                XXX         XXX...oooooooooooooooo",
"ooooooooooooooooooooooooooooooo...XXXXXXXXXXXXXXXX                XXX         XXX...oooooooooooooooo",
"oooooooooooooooooooooooooooo......XXXXXXXXXXXXX                   XXX         XXX...oooooooooooooooo",
"oooooooooooooooooooooooooooo......XXXXXXXXXXXXX                   XXX         XXX...oooooooooooooooo",
"oooooooooooooooooooooooooooo......XXXXXXXXXXXXX                   XXX         XXX...oooooooooooooooo",
"oooooooooooooooooooooooooooo......XXXXXXXXXX                   XXXXXX         XXX...oooooooooooooooo",
"oooooooooooooooooooooooooooo......XXXXXXXXXX                   XXXXXX         XXX...oooooooooooooooo",
"oooooooooooooooooooooooooooo......XXXXXXXXXX                   XXXXXX         XXX...oooooooooooooooo",
"oooooooooooooooooooooooooooo......XXXXXXXXXX                   XXXXXX         XXX...oooooooooooooooo",
"ooooooooooooooooooooooooo.........XXXXXXXXXX               XXXXXXX         XXXXXX...oooooooooooooooo",
"ooooooooooooooooooooooooo.........XXXXXXXXXX               XXXXXXX         XXXXXX...oooooooooooooooo",
"ooooooooooooooooooooooooo.........XXXXXXXXXX               XXXXXXX         XXXXXX...oooooooooooooooo",
"ooooooooooooooooooooooooo.........XXXXXXXXXX               XXXXXXX         XXX......oooooooooooooooo",
"ooooooooooooooooooooooooo.........XXXXXXXXXX               XXXXXXX         XXX......oooooooooooooooo",
"ooooooooooooooooooooooooo.........XXXXXXXXXX               XXXXXXX         XXX......oooooooooooooooo",
"oooooooooooooooooooooo............XXXXXXXXXXXXX         XXXXXXX            XXX...ooooooooooooooooooo",
"oooooooooooooooooooooo............XXXXXXXXXXXXX         XXXXXXX            XXX...ooooooooooooooooooo",
"oooooooooooooooooooooo............XXXXXXXXXXXXX         XXXXXXX            XXX...ooooooooooooooooooo",
"ooooooooooooooooooo...................XXXXXXXXXXXXXXXXXXXXXXXXX         XXXXXX...ooooooooooooooooooo",
"ooooooooooooooooooo...................XXXXXXXXXXXXXXXXXXXXXXXXX         XXXXXX...ooooooooooooooooooo",
"ooooooooooooooooooo...................XXXXXXXXXXXXXXXXXXXXXXXXX         XXXXXX...ooooooooooooooooooo",
"oooooooooooooooo.........................XXXXXXXXXXXXXXXXXXXXXXXXXXXXXXXXXXXXX...ooooooooooooooooooo",
"oooooooooooooooo.........................XXXXXXXXXXXXXXXXXXXXXXXXXXXXXXXXXXXXX...ooooooooooooooooooo",
"oooooooooooooooo.........................XXXXXXXXXXXXXXXXXXXXXXXXXXXXXXXXXXXXX...ooooooooooooooooooo",
"oooooooooooooooo..................................XXXXXXXXXXXXXXXXXXXXXXXXX......ooooooooooooooooooo",
"oooooooooooooooo..................................XXXXXXXXXXXXXXXXXXXXXXXXX......ooooooooooooooooooo",
"oooooooooooooooo..................................XXXXXXXXXXXXXXXXXXXXXXXXX......ooooooooooooooooooo",
"ooooooooooooo....................................................................ooooooooooooooooooo",
"ooooooooooooo....................................................................ooooooooooooooooooo",
"ooooooooooooo....................................................................ooooooooooooooooooo",
"oooooooooooooooooooooooooooooooooooooooooooooooooooooooooooooooooooooooooooooooooooooooooooooooooooo",
"oooooooooooooooooooooooooooooooooooooooooooooooooooooooooooooooooooooooooooooooooooooooooooooooooooo",
"oooooooooooooooooooooooooooooooooooooooooooooooooooooooooooooooooooooooooooooooooooooooooooooooooooo",
"oooooooooooooooooooooooooooooooooooooooooooooooooooooooooooooooooooooooooooooooooooooooooooooooooooo",
"oooooooooooooooooooooooooooooooooooooooooooooooooooooooooooooooooooooooooooooooooooooooooooooooooooo",
"oooooooooooooooooooooooooooooooooooooooooooooooooooooooooooooooooooooooooooooooooooooooooooooooooooo",
"oooooooooooooooooooooooooooooooooooooooooooooooooooooooooooooooooooooooooooooooooooooooooooooooooooo",
"oooooooooooooooooooooooooooooooooooooooooooooooooooooooooooooooooooooooooooooooooooooooooooooooooooo",
"oooooooooooooooooooooooooooooooooooooooooooooooooooooooooooooooooooooooooooooooooooooooooooooooooooo",
"oooooooooooooooooooooooooooooooooooooooooooooooooooooooooooooooooooooooooooooooooooooooooooooooooooo",
"oooooooooooooooooooooooooooooooooooooooooooooooooooooooooooooooooooooooooooooooooooooooooooooooooooo",
"oooooooooooooooooooooooooooooooooooooooooooooooooooooooooooooooooooooooooooooooooooooooooooooooooooo",
"oooooooooooooooooooooooooooooooooooooooooooooooooooooooooooooooooooooooooooooooooooooooooooooooooooo"
};
