/* XPM */
static char *mage2Left_xpm[] = {
/* columns rows colors chars-per-pixel */
"100 100 12 1 ",
"  c #000000",
". c #5B0000",
"X c #7F1B1B",
"o c #6A6A6A",
"O c #7B7B7B",
"+ c #9E1D1D",
"@ c #CD2727",
"# c #FFBA00",
"$ c #868686",
"% c #FFC9A1",
"& c #FFFFFF",
"* c None",
/* pixels */
"****************************************************************************************************",
"****************************************************************************************************",
"****************************************************************************************************",
"****************************************************************************************************",
"****************************************************************************************************",
"****************************************************************************************************",
"****************************************************************************************************",
"****************************************************************************************************",
"****************************************************************************************************",
"****************************************************************************************************",
"****************************************************************************************************",
"****************************************************************************************************",
"****************************************************************************************************",
"****************************************************************************************************",
"****************************************************************************************************",
"****************************************************************************************************",
"***********************************************............*****************************************",
"***********************************************............*****************************************",
"***********************************************............*****************************************",
"********************************************.........***********************************************",
"********************************************.........***********************************************",
"********************************************.........***********************************************",
"*****************************************............***********************************************",
"*****************************************............***********************************************",
"*****************************************............***********************************************",
"*****************************************............***********************************************",
"*****************************************............***********************************************",
"*****************************************............***********************************************",
"**************************************...............***********************************************",
"**************************************...............***********************************************",
"**************************************...............***********************************************",
"**************************************###............###********************************************",
"**************************************###............###********************************************",
"**************************************###............###********************************************",
"*******************************..........############..........*************************************",
"*******************************..........############..........*************************************",
"*******************************..........############..........*************************************",
"****************************......................................**********************************",
"****************************......................................**********************************",
"****************************......................................**********************************",
"****************************......................................**********************************",
"*******************************................................*************************************",
"*******************************................................*************************************",
"*******************************................................*************************************",
"**********************************$$$$%%%   &&&$$$$$$$$$********************************************",
"**********************************$$$$%%%   &&&$$$$$$$$$********************************************",
"**********************************$$$$%%%   &&&$$$$$$$$$********************************************",
"**********************************$$$$%%%%%%%%%OOO$$$$$$********************************************",
"**********************************$$$$%%%%%%%%%OOO$$$$$$********************************************",
"**********************************$$$$%%%%%%%%%OOO$$$$$$********************************************",
"*******************************$$$$$$$oooooooooooo$$$$$$$$$*****************************************",
"*******************************$$$$$$$oooooooooooo$$$$$$$$$*****************************************",
"*******************************$$$$$$$oooooooooooo$$$$$$$$$*****************************************",
"**********************************@@@@ooooooooo+++$$$XXXXXX*****************************************",
"**********************************@@@@ooooooooo+++$$$XXXXXX*****************************************",
"**********************************@@@@ooooooooo+++$$$XXXXXX*****************************************",
"**********************************@@@@oooooo++++++XXXXXXXXX*****************************************",
"**********************************@@@@oooooo++++++XXXXXXXXX*****************************************",
"**********************************@@@@oooooo++++++XXXXXXXXX*****************************************",
"*******************************@@@+++++++++++++++++++XXXXXXXXXX*************************************",
"*******************************@@@+++++++++++++++++++XXXXXXXXXX*************************************",
"*******************************@@@+++++++++++++++++++XXXXXXXXXX*************************************",
"*******************************@@@+++++++++++++++++++XXXXXXXXXX*************************************",
"*******************************@@@+++++++++++++++++++XXXXXXXXXX*************************************",
"*******************************@@@+++++++++++++++++++XXXXXXXXXX*************************************",
"*******************************@@@+++++++++++++++++++XXXXXXXXXX*************************************",
"*******************************@@@+++++++++++++++++++XXXXXXXXXX*************************************",
"*******************************@@@+++++++++++++++++++XXXXXXXXXX*************************************",
"*******************************@@@+++++++++++++++++++XXXXXXXXXX*************************************",
"*******************************@@@++++++++++++++++++++++XXXXXXXXXXXXX*******************************",
"*******************************@@@++++++++++++++++++++++XXXXXXXXXXXXX*******************************",
"*******************************@@@++++++++++++++++++++++XXXXXXXXXXXXX*******************************",
"*******************************@@@++++++++++++++++++++++XXXXXXXXXXXXXXXX****************************",
"*******************************@@@++++++++++++++++++++++XXXXXXXXXXXXXXXX****************************",
"*******************************@@@++++++++++++++++++++++XXXXXXXXXXXXXXXX****************************",
"**********************************@@@@+++++++++XXXXXXXXXXXXXXXXXXXXXXXXX****************************",
"**********************************@@@@+++++++++XXXXXXXXXXXXXXXXXXXXXXXXX****************************",
"**********************************@@@@+++++++++XXXXXXXXXXXXXXXXXXXXXXXXX****************************",
"****************************************************************************************************",
"****************************************************************************************************",
"****************************************************************************************************",
"****************************************************************************************************",
"****************************************************************************************************",
"****************************************************************************************************",
"****************************************************************************************************",
"****************************************************************************************************",
"****************************************************************************************************",
"****************************************************************************************************",
"****************************************************************************************************",
"****************************************************************************************************",
"****************************************************************************************************",
"****************************************************************************************************",
"****************************************************************************************************",
"****************************************************************************************************",
"****************************************************************************************************",
"****************************************************************************************************",
"****************************************************************************************************",
"****************************************************************************************************",
"****************************************************************************************************",
"****************************************************************************************************"
};
