/* XPM */
static char *mageUp_xpm[] = {
/* columns rows colors chars-per-pixel */
"100 100 6 1 ",
"  c None",
". c #001825",
"X c #002A3F",
"o c #004364",
"O c #FFBA00",
"+ c #868686",
/* pixels */
"                                                                                                    ",
"                                                                                                    ",
"                                                                                                    ",
"                                                                                                    ",
"                                                                                                    ",
"                                                                                                    ",
"                                                                                                    ",
"                                                                                                    ",
"                                                                                                    ",
"                                                                                                    ",
"                                                                                                    ",
"                                                                                                    ",
"                                                                                                    ",
"                                                                                                    ",
"                                                                                                    ",
"                                                                                                    ",
"                                                  ...                                               ",
"                                                  ...                                               ",
"                                                  ...                                               ",
"                                                  ...XXX                                            ",
"                                                  ...XXX                                            ",
"                                                  ...XXX                                            ",
"                                               XXX...XXXXXX                                         ",
"                                               XXX...XXXXXX                                         ",
"                                               XXX...XXXXXX                                         ",
"                                               XXXXXXXXXXXX                                         ",
"                                               XXXXXXXXXXXX                                         ",
"                                               XXXXXXXXXXXX                                         ",
"                                               XXXXXXXXXXXXXXXX                                     ",
"                                               XXXXXXXXXXXXXXXX                                     ",
"                                               XXXXXXXXXXXXXXXX                                     ",
"                                            OOOXXXXXXXXXXXXOOOO                                     ",
"                                            OOOXXXXXXXXXXXXOOOO                                     ",
"                                            OOOXXXXXXXXXXXXOOOO                                     ",
"                                      XXXXXXXXXOOOOOOOOOOOOXXXXXXXXXX                               ",
"                                      XXXXXXXXXOOOOOOOOOOOOXXXXXXXXXX                               ",
"                                      XXXXXXXXXOOOOOOOOOOOOXXXXXXXXXX                               ",
"                                  XXXXXXXXXXXXXXXXXXXXXXXXXXXXXXXXXXXXXX                            ",
"                                  XXXXXXXXXXXXXXXXXXXXXXXXXXXXXXXXXXXXXX                            ",
"                                  XXXXXXXXXXXXXXXXXXXXXXXXXXXXXXXXXXXXXX                            ",
"                                  XXXXXXXXXXXXXXXXXXXXXXXXXXXXXXXXXXXXXX                            ",
"                                      XXXXXXXXXXXXXXXXXXXXXXXXXXXXXXX                               ",
"                                      XXXXXXXXXXXXXXXXXXXXXXXXXXXXXXX                               ",
"                                      XXXXXXXXXXXXXXXXXXXXXXXXXXXXXXX                               ",
"                                            ++++++++++++++++++++++                                  ",
"                                            ++++++++++++++++++++++                                  ",
"                                            ++++++++++++++++++++++                                  ",
"                                         ++++++++++++++++++++++++++++                               ",
"                                         ++++++++++++++++++++++++++++                               ",
"                                         ++++++++++++++++++++++++++++                               ",
"                                         ++++++++++++++++++++++++++++                               ",
"                                         ++++++++++++++++++++++++++++                               ",
"                                         ++++++++++++++++++++++++++++                               ",
"                                      ooooooooo++++++++++++++++ooooooooo                            ",
"                                      ooooooooo++++++++++++++++ooooooooo                            ",
"                                      ooooooooo++++++++++++++++ooooooooo                            ",
"                                      ooooooooooooooo+++oooooooooooooooo                            ",
"                                      ooooooooooooooo+++oooooooooooooooo                            ",
"                                      ooooooooooooooo+++oooooooooooooooo                            ",
"                                      oooooooooooooooooooooooooooooooooo                            ",
"                                      oooooooooooooooooooooooooooooooooo                            ",
"                                      oooooooooooooooooooooooooooooooooo                            ",
"                                  ooooooooooooooooooooooooooooooooooooooooo                         ",
"                                  ooooooooooooooooooooooooooooooooooooooooo                         ",
"                                  ooooooooooooooooooooooooooooooooooooooooo                         ",
"                                  ooooooooooooooooooooooooooooooooooooooooo                         ",
"                                  ooooooooooooooooooooooooooooooooooooooooo                         ",
"                                  ooooooooooooooooooooooooooooooooooooooooo                         ",
"                                  ooooooooooooooooooooooooooooooooooooooooo                         ",
"                                  ooooooooooooooooooooooooooooooooooooooooo                         ",
"                                  ooooooooooooooooooooooooooooooooooooooooo                         ",
"                                  ooooooooooooooooooooooooooooooooooooooooo                         ",
"                                  ooooooooooooooooooooooooooooooooooooooooo                         ",
"                                  ooooooooooooooooooooooooooooooooooooooooo                         ",
"                                  ooooooooooooooooooooooooooooooooooooooooo                         ",
"                                      oooooooooooooooooooooooooooooooooo                            ",
"                                      oooooooooooooooooooooooooooooooooo                            ",
"                                      oooooooooooooooooooooooooooooooooo                            ",
"                                            oooooooooooooooooooooo                                  ",
"                                            oooooooooooooooooooooo                                  ",
"                                            oooooooooooooooooooooo                                  ",
"                                               oooooooooooooooo                                     ",
"                                               oooooooooooooooo                                     ",
"                                               oooooooooooooooo                                     ",
"                                               oooooooooooooooo                                     ",
"                                               oooooooooooooooo                                     ",
"                                               oooooooooooooooo                                     ",
"                                                  ooooooooo                                         ",
"                                                  ooooooooo                                         ",
"                                                  ooooooooo                                         ",
"                                                  ooooooooo                                         ",
"                                                                                                    ",
"                                                                                                    ",
"                                                                                                    ",
"                                                                                                    ",
"                                                                                                    ",
"                                                                                                    ",
"                                                                                                    ",
"                                                                                                    ",
"                                                                                                    "
};
