/* XPM */
static char *blueHeart_xpm[] = {
/* columns rows colors chars-per-pixel */
"132 132 3 1 ",
"  c None",
". c #002A3F",
"X c #005884",
/* pixels */
"                                                                                                                                    ",
"                                                                                                                                    ",
"                                                                                                                                    ",
"                                                                                                                                    ",
"                                                                                                                                    ",
"                                                                                                                                    ",
"                                                                                                                                    ",
"                                                                                                                                    ",
"                                                                                                                                    ",
"                                                                                                                                    ",
"                                                                                                                                    ",
"                                                                                                                                    ",
"                                                                                                                                    ",
"                                                                                                                                    ",
"                                                                                                                                    ",
"                                                                                                                                    ",
"                                                                                                                                    ",
"                                                                                                                                    ",
"                                                                                                                                    ",
"                                                                                                                                    ",
"                                                                                                                                    ",
"                                                                                                                                    ",
"                                                                                                                                    ",
"                                                                                                                                    ",
"                                                                                                                                    ",
"                                                                                                                                    ",
"                                                                                                                                    ",
"                                                                                                                                    ",
"                                                                                                                                    ",
"                                                                                                                                    ",
"                                                                                                                                    ",
"                                                                                                                                    ",
"                                                                                                                                    ",
"                                                                                                                                    ",
"                                                                                                                                    ",
"                                                                                                                                    ",
"                                                                                                                                    ",
"                                                                                                                                    ",
"                                                                                                                                    ",
"                                                                                                                                    ",
"                                                                                                                                    ",
"                                                                                                                                    ",
"                                                                                                                                    ",
"                                                                                                                                    ",
"                                                                                                                                    ",
"                                                                                                                                    ",
"                                                                                                                                    ",
"                                                                                                                                    ",
"                                                                                                                                    ",
"                                                                                                                                    ",
"                                                                                                                                    ",
"                                                                                                                                    ",
"                                                                                                                                    ",
"                                                                                                                                    ",
"                                                                                                                                    ",
"                                                                                                                                    ",
"                                                                                                                                    ",
"                                                                                                                                    ",
"                                                              ........    .........                                                 ",
"                                                              ........    .........                                                 ",
"                                                              ........    .........                                                 ",
"                                                              ........    .........                                                 ",
"                                                          ....XXXXXXXX....XXXXXXXXX....                                             ",
"                                                          ....XXXXXXXX....XXXXXXXXX....                                             ",
"                                                          ....XXXXXXXX....XXXXXXXXX....                                             ",
"                                                          ....XXXXXXXX....XXXXXXXXX....                                             ",
"                                                          ....XXXXXXXXXXXXXXXXXXXXX....                                             ",
"                                                          ....XXXXXXXXXXXXXXXXXXXXX....                                             ",
"                                                          ....XXXXXXXXXXXXXXXXXXXXX....                                             ",
"                                                          ....XXXXXXXXXXXXXXXXXXXXX....                                             ",
"                                                          ....XXXXXXXXXXXXXXXXXXXXX....                                             ",
"                                                          ....XXXXXXXXXXXXXXXXXXXXX....                                             ",
"                                                          ....XXXXXXXXXXXXXXXXXXXXX....                                             ",
"                                                          ....XXXXXXXXXXXXXXXXXXXXX....                                             ",
"                                                              ....XXXXXXXXXXXX.....                                                 ",
"                                                              ....XXXXXXXXXXXX.....                                                 ",
"                                                              ....XXXXXXXXXXXX.....                                                 ",
"                                                              ....XXXXXXXXXXXX.....                                                 ",
"                                                                  ....XXXX....                                                      ",
"                                                                  ....XXXX....                                                      ",
"                                                                  ....XXXX....                                                      ",
"                                                                  ....XXXX....                                                      ",
"                                                                      ....                                                          ",
"                                                                      ....                                                          ",
"                                                                      ....                                                          ",
"                                                                      ....                                                          ",
"                                                                      ....                                                          ",
"                                                                                                                                    ",
"                                                                                                                                    ",
"                                                                                                                                    ",
"                                                                                                                                    ",
"                                                                                                                                    ",
"                                                                                                                                    ",
"                                                                                                                                    ",
"                                                                                                                                    ",
"                                                                                                                                    ",
"                                                                                                                                    ",
"                                                                                                                                    ",
"                                                                                                                                    ",
"                                                                                                                                    ",
"                                                                                                                                    ",
"                                                                                                                                    ",
"                                                                                                                                    ",
"                                                                                                                                    ",
"                                                                                                                                    ",
"                                                                                                                                    ",
"                                                                                                                                    ",
"                                                                                                                                    ",
"                                                                                                                                    ",
"                                                                                                                                    ",
"                                                                                                                                    ",
"                                                                                                                                    ",
"                                                                                                                                    ",
"                                                                                                                                    ",
"                                                                                                                                    ",
"                                                                                                                                    ",
"                                                                                                                                    ",
"                                                                                                                                    ",
"                                                                                                                                    ",
"                                                                                                                                    ",
"                                                                                                                                    ",
"                                                                                                                                    ",
"                                                                                                                                    ",
"                                                                                                                                    ",
"                                                                                                                                    ",
"                                                                                                                                    ",
"                                                                                                                                    ",
"                                                                                                                                    ",
"                                                                                                                                    ",
"                                                                                                                                    ",
"                                                                                                                                    ",
"                                                                                                                                    "
};
