/* XPM */
static char *greyHeart_xpm[] = {
/* columns rows colors chars-per-pixel */
"132 132 3 1 ",
"  c None",
". c #2C2C2C",
"X c #808080",
/* pixels */
"                                                                                                                                    ",
"                                                                                                                                    ",
"                                                                                                                                    ",
"                                                                                                                                    ",
"                                                                                                                                    ",
"                                                                                                                                    ",
"                                                                                                                                    ",
"                                                                                                                                    ",
"                                                                                                                                    ",
"                                                                                                                                    ",
"                                                                                                                                    ",
"                                                                                                                                    ",
"                                                                                                                                    ",
"                                                                                                                                    ",
"                                                                                                                                    ",
"                                                                                                                                    ",
"                                                                                                                                    ",
"                                                                                                                                    ",
"                                                                                                                                    ",
"                                                                                                                                    ",
"                                                                                                                                    ",
"                                                                                                                                    ",
"                                                                                                                                    ",
"                                                                                                                                    ",
"                                                                                                                                    ",
"                                                                                                                                    ",
"                                                                                                                                    ",
"                                                                                                                                    ",
"                                                                                                                                    ",
"                                                                                                                                    ",
"                                                                                                                                    ",
"                                                                                                                                    ",
"                                                                                                                                    ",
"                                                                                                                                    ",
"                                                                                                                                    ",
"                                                                                                                                    ",
"                                                                                                                                    ",
"                                                                                                                                    ",
"                                                                                                                                    ",
"                                                                                                                                    ",
"                                                                                                                                    ",
"                                                                                                                                    ",
"                                                                                                                                    ",
"                                                                                                                                    ",
"                                                                                                                                    ",
"                                                                                                                                    ",
"                                                                                                                                    ",
"                                                                                                                                    ",
"                                                                                                                                    ",
"                                                                                                                                    ",
"                                                                                                                                    ",
"                                                                                                                                    ",
"                                                                                                                                    ",
"                                                                                                                                    ",
"                                                                                                                                    ",
"                                                                                                                                    ",
"                                                                                                                                    ",
"                                                                                                                                    ",
"                                                              ........    .........                                                 ",
"                                                              ........    .........                                                 ",
"                                                              ........    .........                                                 ",
"                                                              ........    .........                                                 ",
"                                                          ....XXXXXXXX....XXXXXXXXX....                                             ",
"                                                          ....XXXXXXXX....XXXXXXXXX....                                             ",
"                                                          ....XXXXXXXX....XXXXXXXXX....                                             ",
"                                                          ....XXXXXXXX....XXXXXXXXX....                                             ",
"                                                          ....XXXXXXXXXXXXXXXXXXXXX....                                             ",
"                                                          ....XXXXXXXXXXXXXXXXXXXXX....                                             ",
"                                                          ....XXXXXXXXXXXXXXXXXXXXX....                                             ",
"                                                          ....XXXXXXXXXXXXXXXXXXXXX....                                             ",
"                                                          ....XXXXXXXXXXXXXXXXXXXXX....                                             ",
"                                                          ....XXXXXXXXXXXXXXXXXXXXX....                                             ",
"                                                          ....XXXXXXXXXXXXXXXXXXXXX....                                             ",
"                                                          ....XXXXXXXXXXXXXXXXXXXXX....                                             ",
"                                                              ....XXXXXXXXXXXX.....                                                 ",
"                                                              ....XXXXXXXXXXXX.....                                                 ",
"                                                              ....XXXXXXXXXXXX.....                                                 ",
"                                                              ....XXXXXXXXXXXX.....                                                 ",
"                                                                  ....XXXX....                                                      ",
"                                                                  ....XXXX....                                                      ",
"                                                                  ....XXXX....                                                      ",
"                                                                  ....XXXX....                                                      ",
"                                                                      ....                                                          ",
"                                                                      ....                                                          ",
"                                                                      ....                                                          ",
"                                                                      ....                                                          ",
"                                                                      ....                                                          ",
"                                                                                                                                    ",
"                                                                                                                                    ",
"                                                                                                                                    ",
"                                                                                                                                    ",
"                                                                                                                                    ",
"                                                                                                                                    ",
"                                                                                                                                    ",
"                                                                                                                                    ",
"                                                                                                                                    ",
"                                                                                                                                    ",
"                                                                                                                                    ",
"                                                                                                                                    ",
"                                                                                                                                    ",
"                                                                                                                                    ",
"                                                                                                                                    ",
"                                                                                                                                    ",
"                                                                                                                                    ",
"                                                                                                                                    ",
"                                                                                                                                    ",
"                                                                                                                                    ",
"                                                                                                                                    ",
"                                                                                                                                    ",
"                                                                                                                                    ",
"                                                                                                                                    ",
"                                                                                                                                    ",
"                                                                                                                                    ",
"                                                                                                                                    ",
"                                                                                                                                    ",
"                                                                                                                                    ",
"                                                                                                                                    ",
"                                                                                                                                    ",
"                                                                                                                                    ",
"                                                                                                                                    ",
"                                                                                                                                    ",
"                                                                                                                                    ",
"                                                                                                                                    ",
"                                                                                                                                    ",
"                                                                                                                                    ",
"                                                                                                                                    ",
"                                                                                                                                    ",
"                                                                                                                                    ",
"                                                                                                                                    ",
"                                                                                                                                    ",
"                                                                                                                                    ",
"                                                                                                                                    "
};
