/* XPM */
static char *redHeart_xpm[] = {
/* columns rows colors chars-per-pixel */
"132 132 3 1 ",
"  c None",
". c #5B0000",
"X c #9E1D1D",
/* pixels */
"                                                                                                                                    ",
"                                                                                                                                    ",
"                                                                                                                                    ",
"                                                                                                                                    ",
"                                                                                                                                    ",
"                                                                                                                                    ",
"                                                                                                                                    ",
"                                                                                                                                    ",
"                                                                                                                                    ",
"                                                                                                                                    ",
"                                                                                                                                    ",
"                                                                                                                                    ",
"                                                                                                                                    ",
"                                                                                                                                    ",
"                                                                                                                                    ",
"                                                                                                                                    ",
"                                                                                                                                    ",
"                                                                                                                                    ",
"                                                                                                                                    ",
"                                                                                                                                    ",
"                                                                                                                                    ",
"                                                                                                                                    ",
"                                                                                                                                    ",
"                                                                                                                                    ",
"                                                                                                                                    ",
"                                                                                                                                    ",
"                                                                                                                                    ",
"                                                                                                                                    ",
"                                                                                                                                    ",
"                                                                                                                                    ",
"                                                                                                                                    ",
"                                                                                                                                    ",
"                                                                                                                                    ",
"                                                                                                                                    ",
"                                                                                                                                    ",
"                                                                                                                                    ",
"                                                                                                                                    ",
"                                                                                                                                    ",
"                                                                                                                                    ",
"                                                                                                                                    ",
"                                                                                                                                    ",
"                                                                                                                                    ",
"                                                                                                                                    ",
"                                                                                                                                    ",
"                                                                                                                                    ",
"                                                                                                                                    ",
"                                                                                                                                    ",
"                                                                                                                                    ",
"                                                                                                                                    ",
"                                                                                                                                    ",
"                                                                                                                                    ",
"                                                                                                                                    ",
"                                                                                                                                    ",
"                                                                                                                                    ",
"                                                                                                                                    ",
"                                                                                                                                    ",
"                                                                                                                                    ",
"                                                                                                                                    ",
"                                                              ........    .........                                                 ",
"                                                              ........    .........                                                 ",
"                                                              ........    .........                                                 ",
"                                                              ........    .........                                                 ",
"                                                          ....XXXXXXXX....XXXXXXXXX....                                             ",
"                                                          ....XXXXXXXX....XXXXXXXXX....                                             ",
"                                                          ....XXXXXXXX....XXXXXXXXX....                                             ",
"                                                          ....XXXXXXXX....XXXXXXXXX....                                             ",
"                                                          ....XXXXXXXXXXXXXXXXXXXXX....                                             ",
"                                                          ....XXXXXXXXXXXXXXXXXXXXX....                                             ",
"                                                          ....XXXXXXXXXXXXXXXXXXXXX....                                             ",
"                                                          ....XXXXXXXXXXXXXXXXXXXXX....                                             ",
"                                                          ....XXXXXXXXXXXXXXXXXXXXX....                                             ",
"                                                          ....XXXXXXXXXXXXXXXXXXXXX....                                             ",
"                                                          ....XXXXXXXXXXXXXXXXXXXXX....                                             ",
"                                                          ....XXXXXXXXXXXXXXXXXXXXX....                                             ",
"                                                              ....XXXXXXXXXXXX.....                                                 ",
"                                                              ....XXXXXXXXXXXX.....                                                 ",
"                                                              ....XXXXXXXXXXXX.....                                                 ",
"                                                              ....XXXXXXXXXXXX.....                                                 ",
"                                                                  ....XXXX....                                                      ",
"                                                                  ....XXXX....                                                      ",
"                                                                  ....XXXX....                                                      ",
"                                                                  ....XXXX....                                                      ",
"                                                                      ....                                                          ",
"                                                                      ....                                                          ",
"                                                                      ....                                                          ",
"                                                                      ....                                                          ",
"                                                                      ....                                                          ",
"                                                                                                                                    ",
"                                                                                                                                    ",
"                                                                                                                                    ",
"                                                                                                                                    ",
"                                                                                                                                    ",
"                                                                                                                                    ",
"                                                                                                                                    ",
"                                                                                                                                    ",
"                                                                                                                                    ",
"                                                                                                                                    ",
"                                                                                                                                    ",
"                                                                                                                                    ",
"                                                                                                                                    ",
"                                                                                                                                    ",
"                                                                                                                                    ",
"                                                                                                                                    ",
"                                                                                                                                    ",
"                                                                                                                                    ",
"                                                                                                                                    ",
"                                                                                                                                    ",
"                                                                                                                                    ",
"                                                                                                                                    ",
"                                                                                                                                    ",
"                                                                                                                                    ",
"                                                                                                                                    ",
"                                                                                                                                    ",
"                                                                                                                                    ",
"                                                                                                                                    ",
"                                                                                                                                    ",
"                                                                                                                                    ",
"                                                                                                                                    ",
"                                                                                                                                    ",
"                                                                                                                                    ",
"                                                                                                                                    ",
"                                                                                                                                    ",
"                                                                                                                                    ",
"                                                                                                                                    ",
"                                                                                                                                    ",
"                                                                                                                                    ",
"                                                                                                                                    ",
"                                                                                                                                    ",
"                                                                                                                                    ",
"                                                                                                                                    ",
"                                                                                                                                    ",
"                                                                                                                                    "
};
