/* XPM */
static char *monsterDown_xpm[] = {
/* columns rows colors chars-per-pixel */
"100 100 4 1 ",
"  c #285542",
". c #008F53",
"X c #4AB186",
"o c None",
/* pixels */
"oooooooooooooooooooooooooooooooooooooooooooooooooooooooooooooooooooooooooooooooooooooooooooooooooooo",
"oooooooooooooooooooooooooooooooooooooooooooooooooooooooooooooooooooooooooooooooooooooooooooooooooooo",
"oooooooooooooooooooooooooooooooooooooooooooooooooooooooooooooooooooooooooooooooooooooooooooooooooooo",
"oooooooooooooooooooooooooooooooooooooooooooooooooooooooooooooooooooooooooooooooooooooooooooooooooooo",
"oooooooooooooooooooooooooooooooooooooooooooooooooooooooooooooooooooooooooooooooooooooooooooooooooooo",
"oooooooooooooooooooooooooooooooooooooooooooooooooooooooooooooooooooooooooooooooooooooooooooooooooooo",
"oooooooooooooooooooooooooooooooooooooooooooooooooooooooooooooooooooooooooooooooooooooooooooooooooooo",
"oooooooooooooooooooooooooooooooooooooooooooooooooooooooooooooooooooooooooooooooooooooooooooooooooooo",
"oooooooooooooooooooooooooooooooooooooooooooooooooooooooooooooooooooooooooooooooooooooooooooooooooooo",
"ooooooooooooooooooooooooooooooooooooooooo..................ooooooooooooooooooooooooooooooooooooooooo",
"ooooooooooooooooooooooooooooooooooooooooo..................ooooooooooooooooooooooooooooooooooooooooo",
"ooooooooooooooooooooooooooooooooooooooooo..................ooooooooooooooooooooooooooooooooooooooooo",
"oooooooooooooooooooooooooooooooooooooo......XXXXXXXXXXXX.......ooooooooooooooooooooooooooooooooooooo",
"oooooooooooooooooooooooooooooooooooooo......XXXXXXXXXXXX.......ooooooooooooooooooooooooooooooooooooo",
"oooooooooooooooooooooooooooooooooooooo......XXXXXXXXXXXX.......ooooooooooooooooooooooooooooooooooooo",
"oooooooooooooooooooooooooooooooooooooo......XXXXXXXXXXXX.......ooooooooooooooooooooooooooooooooooooo",
"oooooooooooooooooooooooooooooooooo.......XXXXXXXXXXXXXXXXXX.......oooooooooooooooooooooooooooooooooo",
"oooooooooooooooooooooooooooooooooo.......XXXXXXXXXXXXXXXXXX.......oooooooooooooooooooooooooooooooooo",
"oooooooooooooooooooooooooooooooooo.......XXXXXXXXXXXXXXXXXX.......oooooooooooooooooooooooooooooooooo",
"ooooooooooooooooooooooooooooooo.......XXXXXXXXXXXXXXXXXXXXXXXXX......ooooooooooooooooooooooooooooooo",
"ooooooooooooooooooooooooooooooo.......XXXXXXXXXXXXXXXXXXXXXXXXX......ooooooooooooooooooooooooooooooo",
"ooooooooooooooooooooooooooooooo.......XXXXXXXXXXXXXXXXXXXXXXXXX......ooooooooooooooooooooooooooooooo",
"ooooooooooooooooooooooooooooooo...XXXXXXXXXXXXXXXXXXXXXXXXXXXXXXXX......oooooooooooooooooooooooooooo",
"ooooooooooooooooooooooooooooooo...XXXXXXXXXXXXXXXXXXXXXXXXXXXXXXXX......oooooooooooooooooooooooooooo",
"ooooooooooooooooooooooooooooooo...XXXXXXXXXXXXXXXXXXXXXXXXXXXXXXXX......oooooooooooooooooooooooooooo",
"oooooooooooooooooooooooooooo...XXXXXXX   XXXXXXXXXXXXXXXXXX    XXXXXX...oooooooooooooooooooooooooooo",
"oooooooooooooooooooooooooooo...XXXXXXX   XXXXXXXXXXXXXXXXXX    XXXXXX...oooooooooooooooooooooooooooo",
"oooooooooooooooooooooooooooo...XXXXXXX   XXXXXXXXXXXXXXXXXX    XXXXXX...oooooooooooooooooooooooooooo",
"oooooooooooooooooooooooooooo...XXXXXXX      XXXXXXXXXXXX       XXXXXX...oooooooooooooooooooooooooooo",
"oooooooooooooooooooooooooooo...XXXXXXX      XXXXXXXXXXXX       XXXXXX...oooooooooooooooooooooooooooo",
"oooooooooooooooooooooooooooo...XXXXXXX      XXXXXXXXXXXX       XXXXXX...oooooooooooooooooooooooooooo",
"oooooooooooooooooooooooooooo...XXXXXXX         XXXXXX          XXXXXX...oooooooooooooooooooooooooooo",
"oooooooooooooooooooooooooooo...XXXXXXX         XXXXXX          XXXXXX...oooooooooooooooooooooooooooo",
"oooooooooooooooooooooooooooo...XXXXXXX         XXXXXX          XXXXXX...oooooooooooooooooooooooooooo",
"oooooooooooooooooooooooooooo...XXXXXXXXXXXXXXXXXXXXXXXXXXXXXXXXXXXXXX...oooooooooooooooooooooooooooo",
"oooooooooooooooooooooooooooo...XXXXXXXXXXXXXXXXXXXXXXXXXXXXXXXXXXXXXX...oooooooooooooooooooooooooooo",
"oooooooooooooooooooooooooooo...XXXXXXXXXXXXXXXXXXXXXXXXXXXXXXXXXXXXXX...oooooooooooooooooooooooooooo",
"ooooooooooooooooooooooooo......XXXXXXXXXXXXXXXXXXXXXXXXXXXXXXXXXXXXXX......ooooooooooooooooooooooooo",
"ooooooooooooooooooooooooo......XXXXXXXXXXXXXXXXXXXXXXXXXXXXXXXXXXXXXX......ooooooooooooooooooooooooo",
"ooooooooooooooooooooooooo......XXXXXXXXXXXXXXXXXXXXXXXXXXXXXXXXXXXXXX......ooooooooooooooooooooooooo",
"ooooooooooooooooooooooooo......XXXXXXXXXXXXXXXXXXXXXXXXXXXXXXXXXXXXXX......ooooooooooooooooooooooooo",
"ooooooooooooooooooooooooo...XXXXXXXXXXXXXXXXXXXXXXXXXXXXXXXXXXXXXXXXXXXX...ooooooooooooooooooooooooo",
"ooooooooooooooooooooooooo...XXXXXXXXXXXXXXXXXXXXXXXXXXXXXXXXXXXXXXXXXXXX...ooooooooooooooooooooooooo",
"ooooooooooooooooooooooooo...XXXXXXXXXXXXXXXXXXXXXXXXXXXXXXXXXXXXXXXXXXXX...ooooooooooooooooooooooooo",
"ooooooooooooooooooooooooo...XXXXXXXXXX      XXXXXX   XXXXXX       XXXXXX...ooooooooooooooooooooooooo",
"ooooooooooooooooooooooooo...XXXXXXXXXX      XXXXXX   XXXXXX       XXXXXX...ooooooooooooooooooooooooo",
"ooooooooooooooooooooooooo...XXXXXXXXXX      XXXXXX   XXXXXX       XXXXXX...ooooooooooooooooooooooooo",
"ooooooooooooooooooooooooo...XXXXXX          XXXXXX   XXXXXX          XXX...ooooooooooooooooooooooooo",
"ooooooooooooooooooooooooo...XXXXXX          XXXXXX   XXXXXX          XXX...ooooooooooooooooooooooooo",
"ooooooooooooooooooooooooo...XXXXXX          XXXXXX   XXXXXX          XXX...ooooooooooooooooooooooooo",
"ooooooooooooooooooooooooo...XXX                XXX   XXX             XXX...ooooooooooooooooooooooooo",
"ooooooooooooooooooooooooo...XXX                XXX   XXX             XXX...ooooooooooooooooooooooooo",
"ooooooooooooooooooooooooo...XXX                XXX   XXX             XXX...ooooooooooooooooooooooooo",
"ooooooooooooooooooooooooo...XXX                XXX   XXX             XXX...ooooooooooooooooooooooooo",
"ooooooooooooooooooooooooo...XXX                XXX   XXX             XXX...ooooooooooooooooooooooooo",
"ooooooooooooooooooooooooo...XXX                XXX   XXX             XXX...ooooooooooooooooooooooooo",
"ooooooooooooooooooooooooo...XXX             XXXXXX   XXX             XXX...ooooooooooooooooooooooooo",
"ooooooooooooooooooooooooo...XXX             XXXXXX   XXX             XXX...ooooooooooooooooooooooooo",
"ooooooooooooooooooooooooo...XXX             XXXXXX   XXX             XXX...ooooooooooooooooooooooooo",
"ooooooooooooooooooooooooo...XXX             XXX      XXX             XXX...ooooooooooooooooooooooooo",
"ooooooooooooooooooooooooo...XXX             XXX      XXX             XXX...ooooooooooooooooooooooooo",
"ooooooooooooooooooooooooo...XXX             XXX      XXX             XXX...ooooooooooooooooooooooooo",
"ooooooooooooooooooooooooo...XXXXXX          XXX      XXX          XXXXXX...ooooooooooooooooooooooooo",
"ooooooooooooooooooooooooo...XXXXXX          XXX      XXX          XXXXXX...ooooooooooooooooooooooooo",
"ooooooooooooooooooooooooo...XXXXXX          XXX      XXX          XXXXXX...ooooooooooooooooooooooooo",
"ooooooooooooooooooooooooo...XXXXXX          XXX      XXX          XXXXXX...ooooooooooooooooooooooooo",
"ooooooooooooooooooooooooo......XXXXXXX      XXX      XXXXXX       XXX......ooooooooooooooooooooooooo",
"ooooooooooooooooooooooooo......XXXXXXX      XXX      XXXXXX       XXX......ooooooooooooooooooooooooo",
"ooooooooooooooooooooooooo......XXXXXXX      XXX      XXXXXX       XXX......ooooooooooooooooooooooooo",
"ooooooooooooooooooooooooo......XXXXXXX      XXX         XXX    XXXXXX......ooooooooooooooooooooooooo",
"ooooooooooooooooooooooooo......XXXXXXX      XXX         XXX    XXXXXX......ooooooooooooooooooooooooo",
"ooooooooooooooooooooooooo......XXXXXXX      XXX         XXX    XXXXXX......ooooooooooooooooooooooooo",
"ooooooooooooooooooooooooo......XXXXXXX   XXXXXX         XXXXXXXXXXXXX......ooooooooooooooooooooooooo",
"ooooooooooooooooooooooooo......XXXXXXX   XXXXXX         XXXXXXXXXXXXX......ooooooooooooooooooooooooo",
"ooooooooooooooooooooooooo......XXXXXXX   XXXXXX         XXXXXXXXXXXXX......ooooooooooooooooooooooooo",
"oooooooooooooooooooooo.........XXXXXXXXXXXXX               XXXXXXXXXX.........oooooooooooooooooooooo",
"oooooooooooooooooooooo.........XXXXXXXXXXXXX               XXXXXXXXXX.........oooooooooooooooooooooo",
"oooooooooooooooooooooo.........XXXXXXXXXXXXX               XXXXXXXXXX.........oooooooooooooooooooooo",
"oooooooooooooooooooooo.........XXXXXXXXXXXXXXXXXXXXXXXXXXXXXXXXXXXXXX.........oooooooooooooooooooooo",
"oooooooooooooooooooooo.........XXXXXXXXXXXXXXXXXXXXXXXXXXXXXXXXXXXXXX.........oooooooooooooooooooooo",
"oooooooooooooooooooooo.........XXXXXXXXXXXXXXXXXXXXXXXXXXXXXXXXXXXXXX.........oooooooooooooooooooooo",
"ooooooooooooooooooo...................XXXXXXXXXXXXXXXXXXXXXXXXXXXX...............ooooooooooooooooooo",
"ooooooooooooooooooo...................XXXXXXXXXXXXXXXXXXXXXXXXXXXX...............ooooooooooooooooooo",
"ooooooooooooooooooo...................XXXXXXXXXXXXXXXXXXXXXXXXXXXX...............ooooooooooooooooooo",
"ooooooooooooooooooooooooo................XXXXXXXXXXXXXXXXXX................ooooooooooooooooooooooooo",
"ooooooooooooooooooooooooo................XXXXXXXXXXXXXXXXXX................ooooooooooooooooooooooooo",
"ooooooooooooooooooooooooo................XXXXXXXXXXXXXXXXXX................ooooooooooooooooooooooooo",
"oooooooooooooooooooooooooooooooooo...................................ooooooooooooooooooooooooooooooo",
"oooooooooooooooooooooooooooooooooo...................................ooooooooooooooooooooooooooooooo",
"oooooooooooooooooooooooooooooooooo...................................ooooooooooooooooooooooooooooooo",
"oooooooooooooooooooooooooooooooooo...................................ooooooooooooooooooooooooooooooo",
"oooooooooooooooooooooooooooooooooooooooooooooooooooooooooooooooooooooooooooooooooooooooooooooooooooo",
"oooooooooooooooooooooooooooooooooooooooooooooooooooooooooooooooooooooooooooooooooooooooooooooooooooo",
"oooooooooooooooooooooooooooooooooooooooooooooooooooooooooooooooooooooooooooooooooooooooooooooooooooo",
"oooooooooooooooooooooooooooooooooooooooooooooooooooooooooooooooooooooooooooooooooooooooooooooooooooo",
"oooooooooooooooooooooooooooooooooooooooooooooooooooooooooooooooooooooooooooooooooooooooooooooooooooo",
"oooooooooooooooooooooooooooooooooooooooooooooooooooooooooooooooooooooooooooooooooooooooooooooooooooo",
"oooooooooooooooooooooooooooooooooooooooooooooooooooooooooooooooooooooooooooooooooooooooooooooooooooo",
"oooooooooooooooooooooooooooooooooooooooooooooooooooooooooooooooooooooooooooooooooooooooooooooooooooo",
"oooooooooooooooooooooooooooooooooooooooooooooooooooooooooooooooooooooooooooooooooooooooooooooooooooo"
};
