/* XPM */
static char *continueButtonHighlighted[] = {
/* columns rows colors chars-per-pixel */
"234 71 4 1 ",
"  c #000000",
". c #FF2323",
"X c #FFF9F9",
"o c None",
/* pixels */
"ooooooooooo                                                                                                                                                                                                                    ooooooooooo",
"ooooooooooo                                                                                                                                                                                                                    ooooooooooo",
"ooooooooooo                                                                                                                                                                                                                    ooooooooooo",
"ooooooooooo                                                                                                                                                                                                                    ooooooooooo",
"ooooooooooo                                                                                                                                                                                                                    ooooooooooo",
"ooooo      ....................................................................................................................................................................................................................      ooooo",
"ooooo      ....................................................................................................................................................................................................................      ooooo",
"ooooo      ....................................................................................................................................................................................................................      ooooo",
"ooooo      ....................................................................................................................................................................................................................      ooooo",
"ooooo      ....................................................................................................................................................................................................................      ooooo",
"ooooo      ....................................................................................................................................................................................................................      ooooo",
"     ................................................................................................................................................................................................................................     ",
"     ................................................................................................................................................................................................................................     ",
"     ................................................................................................................................................................................................................................     ",
"     ................................................................................................................................................................................................................................     ",
"     ................................................................................................................................................................................................................................     ",
"     ................................................................................................................................................................................................................................     ",
"     ................................................................................................................................................................................................................................     ",
"     ................................................................................................................................................................................................................................     ",
"     ................................................................................................................................................................................................................................     ",
"     ................................................................................................................................................................................................................................     ",
"     ................................................................................................................................................................................................................................     ",
"     .................XXXXXXXXXXXXXXXXXXXXX......XXXXXXXXXXXXXXXX......XXXXX...........XXXXXX.....XXXXXXXXXXXXXXXXXXXXXX.....XXXXXXXXXXX......XXXXX...........XXXXX......XXXXX...........XXXXXX.....XXXXXXXXXXXXXXXXX................     ",
"     .................XXXXXXXXXXXXXXXXXXXXX......XXXXXXXXXXXXXXXX......XXXXX...........XXXXXX.....XXXXXXXXXXXXXXXXXXXXXX.....XXXXXXXXXXX......XXXXX...........XXXXX......XXXXX...........XXXXXX.....XXXXXXXXXXXXXXXXX................     ",
"     .................XXXXXXXXXXXXXXXXXXXXX......XXXXXXXXXXXXXXXX......XXXXX...........XXXXXX.....XXXXXXXXXXXXXXXXXXXXXX.....XXXXXXXXXXX......XXXXX...........XXXXX......XXXXX...........XXXXXX.....XXXXXXXXXXXXXXXXX................     ",
"     .................XXXXXXXXXXXXXXXXXXXXX......XXXXXXXXXXXXXXXX......XXXXX...........XXXXXX.....XXXXXXXXXXXXXXXXXXXXXX.....XXXXXXXXXXX......XXXXX...........XXXXX......XXXXX...........XXXXXX.....XXXXXXXXXXXXXXXXX................     ",
"     .................XXXXXXXXXXXXXXXXXXXXX......XXXXXXXXXXXXXXXX......XXXXX...........XXXXXX.....XXXXXXXXXXXXXXXXXXXXXX.....XXXXXXXXXXX......XXXXX...........XXXXX......XXXXX...........XXXXXX.....XXXXXXXXXXXXXXXXX................     ",
"     .................XXXXXXXXXXXXXXXXXXXXX......XXXXXXXXXXXXXXXX......XXXXXXXXXXX.....XXXXXX..........XXXXXXXXXXX...........XXXXXXXXXXX......XXXXXXXXXXX.....XXXXX......XXXXX...........XXXXXX.....XXXXXX...........................     ",
"     .................XXXXXXXXXXXXXXXXXXXXX......XXXXXXXXXXXXXXXX......XXXXXXXXXXX.....XXXXXX..........XXXXXXXXXXX...........XXXXXXXXXXX......XXXXXXXXXXX.....XXXXX......XXXXX...........XXXXXX.....XXXXXX...........................     ",
"     .................XXXXXXXXXXXXXXXXXXXXX......XXXXXXXXXXXXXXXX......XXXXXXXXXXX.....XXXXXX..........XXXXXXXXXXX...........XXXXXXXXXXX......XXXXXXXXXXX.....XXXXX......XXXXX...........XXXXXX.....XXXXXX...........................     ",
"     .................XXXXXXXXXXXXXXXXXXXXX......XXXXXXXXXXXXXXXX......XXXXXXXXXXX.....XXXXXX..........XXXXXXXXXXX...........XXXXXXXXXXX......XXXXXXXXXXX.....XXXXX......XXXXX...........XXXXXX.....XXXXXX...........................     ",
"     .................XXXXXXXXXXXXXXXXXXXXX......XXXXXXXXXXXXXXXX......XXXXXXXXXXX.....XXXXXX..........XXXXXXXXXXX...........XXXXXXXXXXX......XXXXXXXXXXX.....XXXXX......XXXXX...........XXXXXX.....XXXXXX...........................     ",
"     .................XXXXXXXXXXXXXXXXXXXXX......XXXXXXXXXXXXXXXX......XXXXXXXXXXX.....XXXXXX..........XXXXXXXXXXX...........XXXXXXXXXXX......XXXXXXXXXXX.....XXXXX......XXXXX...........XXXXXX.....XXXXXX...........................     ",
"     .................XXXXXXXXXXX................XXXXX......XXXXX......XXXXXXXXXXXXXXXXXXXXXX..........XXXXXXXXXXX...........XXXXXXXXXXX......XXXXXXXXXXXXXXXXXXXXX......XXXXX...........XXXXXX.....XXXXXXXXXXX......................     ",
"     .................XXXXXXXXXXX................XXXXX......XXXXX......XXXXXXXXXXXXXXXXXXXXXX..........XXXXXXXXXXX...........XXXXXXXXXXX......XXXXXXXXXXXXXXXXXXXXX......XXXXX...........XXXXXX.....XXXXXXXXXXX......................     ",
"     .................XXXXXXXXXXX................XXXXX......XXXXX......XXXXXXXXXXXXXXXXXXXXXX..........XXXXXXXXXXX...........XXXXXXXXXXX......XXXXXXXXXXXXXXXXXXXXX......XXXXX...........XXXXXX.....XXXXXXXXXXX......................     ",
"     .................XXXXXXXXXXX................XXXXX......XXXXX......XXXXXXXXXXXXXXXXXXXXXX..........XXXXXXXXXXX...........XXXXXXXXXXX......XXXXXXXXXXXXXXXXXXXXX......XXXXX...........XXXXXX.....XXXXXXXXXXX......................     ",
"     .................XXXXXXXXXXX................XXXXX......XXXXX......XXXXXXXXXXXXXXXXXXXXXX..........XXXXXXXXXXX...........XXXXXXXXXXX......XXXXXXXXXXXXXXXXXXXXX......XXXXX...........XXXXXX.....XXXXXXXXXXX......................     ",
"     .................XXXXXXXXXXXXXXXXXXXXX......XXXXXXXXXXXXXXXX......XXXXX......XXXXXXXXXXX..........XXXXXXXXXXX...........XXXXXXXXXXX......XXXXX......XXXXXXXXXX......XXXXXXXXXXXXXXXXXXXXXX.....XXXXXX...........................     ",
"     .................XXXXXXXXXXXXXXXXXXXXX......XXXXXXXXXXXXXXXX......XXXXX......XXXXXXXXXXX..........XXXXXXXXXXX...........XXXXXXXXXXX......XXXXX......XXXXXXXXXX......XXXXXXXXXXXXXXXXXXXXXX.....XXXXXX...........................     ",
"     .................XXXXXXXXXXXXXXXXXXXXX......XXXXXXXXXXXXXXXX......XXXXX......XXXXXXXXXXX..........XXXXXXXXXXX...........XXXXXXXXXXX......XXXXX......XXXXXXXXXX......XXXXXXXXXXXXXXXXXXXXXX.....XXXXXX...........................     ",
"     .................XXXXXXXXXXXXXXXXXXXXX......XXXXXXXXXXXXXXXX......XXXXX......XXXXXXXXXXX..........XXXXXXXXXXX...........XXXXXXXXXXX......XXXXX......XXXXXXXXXX......XXXXXXXXXXXXXXXXXXXXXX.....XXXXXX...........................     ",
"     .................XXXXXXXXXXXXXXXXXXXXX......XXXXXXXXXXXXXXXX......XXXXX......XXXXXXXXXXX..........XXXXXXXXXXX...........XXXXXXXXXXX......XXXXX......XXXXXXXXXX......XXXXXXXXXXXXXXXXXXXXXX.....XXXXXX...........................     ",
"     .................XXXXXXXXXXXXXXXXXXXXX......XXXXXXXXXXXXXXXX......XXXXX...........XXXXXX..........XXXXXXXXXXX...........XXXXXXXXXXX......XXXXX...........XXXXX......XXXXXXXXXXXXXXXXXXXXXX.....XXXXXXXXXXXXXXXXX................     ",
"     .................XXXXXXXXXXXXXXXXXXXXX......XXXXXXXXXXXXXXXX......XXXXX...........XXXXXX..........XXXXXXXXXXX...........XXXXXXXXXXX......XXXXX...........XXXXX......XXXXXXXXXXXXXXXXXXXXXX.....XXXXXXXXXXXXXXXXX................     ",
"     .................XXXXXXXXXXXXXXXXXXXXX......XXXXXXXXXXXXXXXX......XXXXX...........XXXXXX..........XXXXXXXXXXX...........XXXXXXXXXXX......XXXXX...........XXXXX......XXXXXXXXXXXXXXXXXXXXXX.....XXXXXXXXXXXXXXXXX................     ",
"     .................XXXXXXXXXXXXXXXXXXXXX......XXXXXXXXXXXXXXXX......XXXXX...........XXXXXX..........XXXXXXXXXXX...........XXXXXXXXXXX......XXXXX...........XXXXX......XXXXXXXXXXXXXXXXXXXXXX.....XXXXXXXXXXXXXXXXX................     ",
"     .................XXXXXXXXXXXXXXXXXXXXX......XXXXXXXXXXXXXXXX......XXXXX...........XXXXXX..........XXXXXXXXXXX...........XXXXXXXXXXX......XXXXX...........XXXXX......XXXXXXXXXXXXXXXXXXXXXX.....XXXXXXXXXXXXXXXXX................     ",
"     .................XXXXXXXXXXXXXXXXXXXXX......XXXXXXXXXXXXXXXX......XXXXX...........XXXXXX..........XXXXXXXXXXX...........XXXXXXXXXXX......XXXXX...........XXXXX......XXXXXXXXXXXXXXXXXXXXXX.....XXXXXXXXXXXXXXXXX................     ",
"     ................................................................................................................................................................................................................................     ",
"     ................................................................................................................................................................................................................................     ",
"     ................................................................................................................................................................................................................................     ",
"     ................................................................................................................................................................................................................................     ",
"     ................................................................................................................................................................................................................................     ",
"     ................................................................................................................................................................................................................................     ",
"     ................................................................................................................................................................................................................................     ",
"     ................................................................................................................................................................................................................................     ",
"     ................................................................................................................................................................................................................................     ",
"     ................................................................................................................................................................................................................................     ",
"     ................................................................................................................................................................................................................................     ",
"ooooo      ....................................................................................................................................................................................................................      ooooo",
"ooooo      ....................................................................................................................................................................................................................      ooooo",
"ooooo      ....................................................................................................................................................................................................................      ooooo",
"ooooo      ....................................................................................................................................................................................................................      ooooo",
"ooooo      ....................................................................................................................................................................................................................      ooooo",
"ooooooooooo                                                                                                                                                                                                                    ooooooooooo",
"ooooooooooo                                                                                                                                                                                                                    ooooooooooo",
"ooooooooooo                                                                                                                                                                                                                    ooooooooooo",
"ooooooooooo                                                                                                                                                                                                                    ooooooooooo",
"ooooooooooo                                                                                                                                                                                                                    ooooooooooo",
"ooooooooooo                                                                                                                                                                                                                    ooooooooooo"
};
