/* XPM */
static char *instButtonHighlighted[] = {
/* columns rows colors chars-per-pixel */
"273 71 4 1 ",
"  c #000000",
". c #FF2323",
"X c #FFF9F9",
"o c None",
/* pixels */
"ooooooooooo                                                                                                                                                                                                                                                           ooooooooooo",
"ooooooooooo                                                                                                                                                                                                                                                           ooooooooooo",
"ooooooooooo                                                                                                                                                                                                                                                           ooooooooooo",
"ooooooooooo                                                                                                                                                                                                                                                           ooooooooooo",
"ooooooooooo                                                                                                                                                                                                                                                           ooooooooooo",
"ooooo      ...........................................................................................................................................................................................................................................................     oooooo",
"ooooo      ...........................................................................................................................................................................................................................................................     oooooo",
"ooooo      ...........................................................................................................................................................................................................................................................     oooooo",
"ooooo      ...........................................................................................................................................................................................................................................................     oooooo",
"ooooo      ...........................................................................................................................................................................................................................................................     oooooo",
"ooooo      ...........................................................................................................................................................................................................................................................     oooooo",
"     ......................................................................................................................................................................................................................................................................      ",
"     ......................................................................................................................................................................................................................................................................      ",
"     ......................................................................................................................................................................................................................................................................      ",
"     ......................................................................................................................................................................................................................................................................      ",
"     ......................................................................................................................................................................................................................................................................      ",
"     ......................................................................................................................................................................................................................................................................      ",
"     ......................................................................................................................................................................................................................................................................      ",
"     ......................................................................................................................................................................................................................................................................      ",
"     ......................................................................................................................................................................................................................................................................      ",
"     ......................................................................................................................................................................................................................................................................      ",
"     ......................................................................................................................................................................................................................................................................      ",
"     ...........XXXXXXXXXXX......XXXXX...........XXXXXX.....XXXXXXXXXXX.....XXXXXXXXXXXXXXXXX.....XXXXXXXXXXXXXXXXX.....XXXXX......XXXXX......XXXXXXXXXXX.....XXXXXXXXXXXXXXXXX.....XXXXXXXXXXX.....XXXXXXXXXXXXXXXXX.....XXXXXX...........XXXXX.....XXXXXXXXXXX...........      ",
"     ...........XXXXXXXXXXX......XXXXX...........XXXXXX.....XXXXXXXXXXX.....XXXXXXXXXXXXXXXXX.....XXXXXXXXXXXXXXXXX.....XXXXX......XXXXX......XXXXXXXXXXX.....XXXXXXXXXXXXXXXXX.....XXXXXXXXXXX.....XXXXXXXXXXXXXXXXX.....XXXXXX...........XXXXX.....XXXXXXXXXXX...........      ",
"     ...........XXXXXXXXXXX......XXXXX...........XXXXXX.....XXXXXXXXXXX.....XXXXXXXXXXXXXXXXX.....XXXXXXXXXXXXXXXXX.....XXXXX......XXXXX......XXXXXXXXXXX.....XXXXXXXXXXXXXXXXX.....XXXXXXXXXXX.....XXXXXXXXXXXXXXXXX.....XXXXXX...........XXXXX.....XXXXXXXXXXX...........      ",
"     ...........XXXXXXXXXXX......XXXXX...........XXXXXX.....XXXXXXXXXXX.....XXXXXXXXXXXXXXXXX.....XXXXXXXXXXXXXXXXX.....XXXXX......XXXXX......XXXXXXXXXXX.....XXXXXXXXXXXXXXXXX.....XXXXXXXXXXX.....XXXXXXXXXXXXXXXXX.....XXXXXX...........XXXXX.....XXXXXXXXXXX...........      ",
"     ...........XXXXXXXXXXX......XXXXX...........XXXXXX.....XXXXXXXXXXX.....XXXXXXXXXXXXXXXXX.....XXXXXXXXXXXXXXXXX.....XXXXX......XXXXX......XXXXXXXXXXX.....XXXXXXXXXXXXXXXXX.....XXXXXXXXXXX.....XXXXXXXXXXXXXXXXX.....XXXXXX...........XXXXX.....XXXXXXXXXXX...........      ",
"     ...........XXXXXXXXXXX......XXXXXXXXXXX.....XXXXXX.....XXXXX...........XXXXXXXXXXXXXXXXX.....XXXXXX.....XXXXXX.....XXXXX......XXXXX......XXXXX.................XXXXX...........XXXXXXXXXXX.....XXXXXXXXXXXXXXXXX.....XXXXXXXXXXX......XXXXX.....XXXXXX................      ",
"     ...........XXXXXXXXXXX......XXXXXXXXXXX.....XXXXXX.....XXXXX...........XXXXXXXXXXXXXXXXX.....XXXXXX.....XXXXXX.....XXXXX......XXXXX......XXXXX.................XXXXX...........XXXXXXXXXXX.....XXXXXXXXXXXXXXXXX.....XXXXXXXXXXX......XXXXX.....XXXXXX................      ",
"     ...........XXXXXXXXXXX......XXXXXXXXXXX.....XXXXXX.....XXXXX...........XXXXXXXXXXXXXXXXX.....XXXXXX.....XXXXXX.....XXXXX......XXXXX......XXXXX.................XXXXX...........XXXXXXXXXXX.....XXXXXXXXXXXXXXXXX.....XXXXXXXXXXX......XXXXX.....XXXXXX................      ",
"     ...........XXXXXXXXXXX......XXXXXXXXXXX.....XXXXXX.....XXXXX...........XXXXXXXXXXXXXXXXX.....XXXXXX.....XXXXXX.....XXXXX......XXXXX......XXXXX.................XXXXX...........XXXXXXXXXXX.....XXXXXXXXXXXXXXXXX.....XXXXXXXXXXX......XXXXX.....XXXXXX................      ",
"     ...........XXXXXXXXXXX......XXXXXXXXXXX.....XXXXXX.....XXXXX...........XXXXXXXXXXXXXXXXX.....XXXXXX.....XXXXXX.....XXXXX......XXXXX......XXXXX.................XXXXX...........XXXXXXXXXXX.....XXXXXXXXXXXXXXXXX.....XXXXXXXXXXX......XXXXX.....XXXXXX................      ",
"     ...........XXXXXXXXXXX......XXXXXXXXXXX.....XXXXXX.....XXXXX...........XXXXXXXXXXXXXXXXX.....XXXXXX.....XXXXXX.....XXXXX......XXXXX......XXXXX.................XXXXX...........XXXXXXXXXXX.....XXXXXXXXXXXXXXXXX.....XXXXXXXXXXX......XXXXX.....XXXXXX................      ",
"     ...........XXXXXXXXXXX......XXXXXXXXXXXXXXXXXXXXXX.....XXXXXXXXXXX...........XXXXX...........XXXXXXXXXXXXXXXXX.....XXXXX......XXXXX......XXXXX.................XXXXX...........XXXXXXXXXXX.....XXXXXX.....XXXXXX.....XXXXXXXXXXXXXXXXXXXXXX.....XXXXXXXXXXX...........      ",
"     ...........XXXXXXXXXXX......XXXXXXXXXXXXXXXXXXXXXX.....XXXXXXXXXXX...........XXXXX...........XXXXXXXXXXXXXXXXX.....XXXXX......XXXXX......XXXXX.................XXXXX...........XXXXXXXXXXX.....XXXXXX.....XXXXXX.....XXXXXXXXXXXXXXXXXXXXXX.....XXXXXXXXXXX...........      ",
"     ...........XXXXXXXXXXX......XXXXXXXXXXXXXXXXXXXXXX.....XXXXXXXXXXX...........XXXXX...........XXXXXXXXXXXXXXXXX.....XXXXX......XXXXX......XXXXX.................XXXXX...........XXXXXXXXXXX.....XXXXXX.....XXXXXX.....XXXXXXXXXXXXXXXXXXXXXX.....XXXXXXXXXXX...........      ",
"     ...........XXXXXXXXXXX......XXXXXXXXXXXXXXXXXXXXXX.....XXXXXXXXXXX...........XXXXX...........XXXXXXXXXXXXXXXXX.....XXXXX......XXXXX......XXXXX.................XXXXX...........XXXXXXXXXXX.....XXXXXX.....XXXXXX.....XXXXXXXXXXXXXXXXXXXXXX.....XXXXXXXXXXX...........      ",
"     ...........XXXXXXXXXXX......XXXXXXXXXXXXXXXXXXXXXX.....XXXXXXXXXXX...........XXXXX...........XXXXXXXXXXXXXXXXX.....XXXXX......XXXXX......XXXXX.................XXXXX...........XXXXXXXXXXX.....XXXXXX.....XXXXXX.....XXXXXXXXXXXXXXXXXXXXXX.....XXXXXXXXXXX...........      ",
"     ...........XXXXXXXXXXX......XXXXX......XXXXXXXXXXX..........XXXXXX...........XXXXX...........XXXXXXXXXXX...........XXXXXXXXXXXXXXXX......XXXXX.................XXXXX...........XXXXXXXXXXX.....XXXXXXXXXXXXXXXXX.....XXXXXX.....XXXXXXXXXXX...........XXXXX...........      ",
"     ...........XXXXXXXXXXX......XXXXX......XXXXXXXXXXX..........XXXXXX...........XXXXX...........XXXXXXXXXXX...........XXXXXXXXXXXXXXXX......XXXXX.................XXXXX...........XXXXXXXXXXX.....XXXXXXXXXXXXXXXXX.....XXXXXX.....XXXXXXXXXXX...........XXXXX...........      ",
"     ...........XXXXXXXXXXX......XXXXX......XXXXXXXXXXX..........XXXXXX...........XXXXX...........XXXXXXXXXXX...........XXXXXXXXXXXXXXXX......XXXXX.................XXXXX...........XXXXXXXXXXX.....XXXXXXXXXXXXXXXXX.....XXXXXX.....XXXXXXXXXXX...........XXXXX...........      ",
"     ...........XXXXXXXXXXX......XXXXX......XXXXXXXXXXX..........XXXXXX...........XXXXX...........XXXXXXXXXXX...........XXXXXXXXXXXXXXXX......XXXXX.................XXXXX...........XXXXXXXXXXX.....XXXXXXXXXXXXXXXXX.....XXXXXX.....XXXXXXXXXXX...........XXXXX...........      ",
"     ...........XXXXXXXXXXX......XXXXX......XXXXXXXXXXX..........XXXXXX...........XXXXX...........XXXXXXXXXXX...........XXXXXXXXXXXXXXXX......XXXXX.................XXXXX...........XXXXXXXXXXX.....XXXXXXXXXXXXXXXXX.....XXXXXX.....XXXXXXXXXXX...........XXXXX...........      ",
"     ...........XXXXXXXXXXX......XXXXX...........XXXXXX.....XXXXXXXXXXX...........XXXXX...........XXXXXX.....XXXXXX.....XXXXXXXXXXXXXXXX......XXXXXXXXXXX...........XXXXX...........XXXXXXXXXXX.....XXXXXXXXXXXXXXXXX.....XXXXXX...........XXXXX.....XXXXXXXXXXX...........      ",
"     ...........XXXXXXXXXXX......XXXXX...........XXXXXX.....XXXXXXXXXXX...........XXXXX...........XXXXXX.....XXXXXX.....XXXXXXXXXXXXXXXX......XXXXXXXXXXX...........XXXXX...........XXXXXXXXXXX.....XXXXXXXXXXXXXXXXX.....XXXXXX...........XXXXX.....XXXXXXXXXXX...........      ",
"     ...........XXXXXXXXXXX......XXXXX...........XXXXXX.....XXXXXXXXXXX...........XXXXX...........XXXXXX.....XXXXXX.....XXXXXXXXXXXXXXXX......XXXXXXXXXXX...........XXXXX...........XXXXXXXXXXX.....XXXXXXXXXXXXXXXXX.....XXXXXX...........XXXXX.....XXXXXXXXXXX...........      ",
"     ...........XXXXXXXXXXX......XXXXX...........XXXXXX.....XXXXXXXXXXX...........XXXXX...........XXXXXX.....XXXXXX.....XXXXXXXXXXXXXXXX......XXXXXXXXXXX...........XXXXX...........XXXXXXXXXXX.....XXXXXXXXXXXXXXXXX.....XXXXXX...........XXXXX.....XXXXXXXXXXX...........      ",
"     ...........XXXXXXXXXXX......XXXXX...........XXXXXX.....XXXXXXXXXXX...........XXXXX...........XXXXXX.....XXXXXX.....XXXXXXXXXXXXXXXX......XXXXXXXXXXX...........XXXXX...........XXXXXXXXXXX.....XXXXXXXXXXXXXXXXX.....XXXXXX...........XXXXX.....XXXXXXXXXXX...........      ",
"     ...........XXXXXXXXXXX......XXXXX...........XXXXXX.....XXXXXXXXXXX...........XXXXX...........XXXXXX.....XXXXXX.....XXXXXXXXXXXXXXXX......XXXXXXXXXXX...........XXXXX...........XXXXXXXXXXX.....XXXXXXXXXXXXXXXXX.....XXXXXX...........XXXXX.....XXXXXXXXXXX...........      ",
"     ......................................................................................................................................................................................................................................................................      ",
"     ......................................................................................................................................................................................................................................................................      ",
"     ......................................................................................................................................................................................................................................................................      ",
"     ......................................................................................................................................................................................................................................................................      ",
"     ......................................................................................................................................................................................................................................................................      ",
"     ......................................................................................................................................................................................................................................................................      ",
"     ......................................................................................................................................................................................................................................................................      ",
"     ......................................................................................................................................................................................................................................................................      ",
"     ......................................................................................................................................................................................................................................................................      ",
"     ......................................................................................................................................................................................................................................................................      ",
"     ......................................................................................................................................................................................................................................................................      ",
"ooooo      ...........................................................................................................................................................................................................................................................     oooooo",
"ooooo      ...........................................................................................................................................................................................................................................................     oooooo",
"ooooo      ...........................................................................................................................................................................................................................................................     oooooo",
"ooooo      ...........................................................................................................................................................................................................................................................     oooooo",
"ooooo      ...........................................................................................................................................................................................................................................................     oooooo",
"ooooooooooo                                                                                                                                                                                                                                                           ooooooooooo",
"ooooooooooo                                                                                                                                                                                                                                                           ooooooooooo",
"ooooooooooo                                                                                                                                                                                                                                                           ooooooooooo",
"ooooooooooo                                                                                                                                                                                                                                                           ooooooooooo",
"ooooooooooo                                                                                                                                                                                                                                                           ooooooooooo",
"ooooooooooo                                                                                                                                                                                                                                                           ooooooooooo"
};
