/* XPM */
static char *multiplayerButtonHighlighted_xpm[] = {
/* columns rows colors chars-per-pixel */
"248 55 4 1 ",
"  c #000000",
". c #FF2323",
"X c #FFF9F9",
"o c None",
/* pixels */
"oooooooo                                                                                                                                                                                                                                        oooooooo",
"oooooooo                                                                                                                                                                                                                                        oooooooo",
"oooooooo                                                                                                                                                                                                                                        oooooooo",
"oooooooo                                                                                                                                                                                                                                        oooooooo",
"oooo    ........................................................................................................................................................................................................................................    oooo",
"oooo    ........................................................................................................................................................................................................................................    oooo",
"oooo    ........................................................................................................................................................................................................................................    oooo",
"oooo    ........................................................................................................................................................................................................................................    oooo",
"    ................................................................................................................................................................................................................................................    ",
"    ................................................................................................................................................................................................................................................    ",
"    ................................................................................................................................................................................................................................................    ",
"    ................................................................................................................................................................................................................................................    ",
"    ................................................................................................................................................................................................................................................    ",
"    ................................................................................................................................................................................................................................................    ",
"    ................................................................................................................................................................................................................................................    ",
"    ................................................................................................................................................................................................................................................    ",
"    ................................................................................................................................................................................................................................................    ",
"    .............XXXX.............XXXX.....XXXX........XXXXX....XXXXXXXXX........XXXXXXXXXXXXX....XXXXXXXXX....XXXXXXXXXXXXXXXXXXXXXX....XXXXXXXX.............XXXXXXXXXXXXXXXXX.....XXXX.........XXXX....XXXXXXXXXXXXX....XXXXXXXXXXXXX.............    ",
"    .............XXXX.............XXXX.....XXXX........XXXXX....XXXXXXXXX........XXXXXXXXXXXXX....XXXXXXXXX....XXXXXXXXXXXXXXXXXXXXXX....XXXXXXXX.............XXXXXXXXXXXXXXXXX.....XXXX.........XXXX....XXXXXXXXXXXXX....XXXXXXXXXXXXX.............    ",
"    .............XXXX.............XXXX.....XXXX........XXXXX....XXXXXXXXX........XXXXXXXXXXXXX....XXXXXXXXX....XXXXXXXXXXXXXXXXXXXXXX....XXXXXXXX.............XXXXXXXXXXXXXXXXX.....XXXX.........XXXX....XXXXXXXXXXXXX....XXXXXXXXXXXXX.............    ",
"    .............XXXX.............XXXX.....XXXX........XXXXX....XXXXXXXXX........XXXXXXXXXXXXX....XXXXXXXXX....XXXXXXXXXXXXXXXXXXXXXX....XXXXXXXX.............XXXXXXXXXXXXXXXXX.....XXXX.........XXXX....XXXXXXXXXXXXX....XXXXXXXXXXXXX.............    ",
"    .............XXXXXXXX.....XXXXXXXX.....XXXX........XXXXX....XXXXXXXXX............XXXXX........XXXXXXXXX....XXXXXXXXX........XXXXX....XXXXXXXX.............XXXXX........XXXX.....XXXX.........XXXX....XXXX.............XXXXX....XXXX.............    ",
"    .............XXXXXXXX.....XXXXXXXX.....XXXX........XXXXX....XXXXXXXXX............XXXXX........XXXXXXXXX....XXXXXXXXX........XXXXX....XXXXXXXX.............XXXXX........XXXX.....XXXX.........XXXX....XXXX.............XXXXX....XXXX.............    ",
"    .............XXXXXXXX.....XXXXXXXX.....XXXX........XXXXX....XXXXXXXXX............XXXXX........XXXXXXXXX....XXXXXXXXX........XXXXX....XXXXXXXX.............XXXXX........XXXX.....XXXX.........XXXX....XXXX.............XXXXX....XXXX.............    ",
"    .............XXXXXXXX.....XXXXXXXX.....XXXX........XXXXX....XXXXXXXXX............XXXXX........XXXXXXXXX....XXXXXXXXX........XXXXX....XXXXXXXX.............XXXXX........XXXX.....XXXX.........XXXX....XXXX.............XXXXX....XXXX.............    ",
"    .............XXXXXXXXXXXXXXXXXXXXX.....XXXX........XXXXX....XXXXXXXXX............XXXXX........XXXXXXXXX....XXXXXXXXX........XXXXX....XXXXXXXX.............XXXXX........XXXX.....XXXXXXXXXXXXXXXXX....XXXXXXXXX........XXXXXXXXX.................    ",
"    .............XXXXXXXXXXXXXXXXXXXXX.....XXXX........XXXXX....XXXXXXXXX............XXXXX........XXXXXXXXX....XXXXXXXXX........XXXXX....XXXXXXXX.............XXXXX........XXXX.....XXXXXXXXXXXXXXXXX....XXXXXXXXX........XXXXXXXXX.................    ",
"    .............XXXXXXXXXXXXXXXXXXXXX.....XXXX........XXXXX....XXXXXXXXX............XXXXX........XXXXXXXXX....XXXXXXXXX........XXXXX....XXXXXXXX.............XXXXX........XXXX.....XXXXXXXXXXXXXXXXX....XXXXXXXXX........XXXXXXXXX.................    ",
"    .............XXXXXXXXXXXXXXXXXXXXX.....XXXX........XXXXX....XXXXXXXXX............XXXXX........XXXXXXXXX....XXXXXXXXX........XXXXX....XXXXXXXX.............XXXXX........XXXX.....XXXXXXXXXXXXXXXXX....XXXXXXXXX........XXXXXXXXX.................    ",
"    .............XXXXXXXXXXXXXXXXXXXXX.....XXXX........XXXXX....XXXXXXXXX............XXXXX........XXXXXXXXX....XXXXXXXXX........XXXXX....XXXXXXXX.............XXXXX........XXXX.....XXXXXXXXXXXXXXXXX....XXXXXXXXX........XXXXXXXXX.................    ",
"    .............XXXX....XXXXX....XXXX.....XXXXXXXXXXXXXXXXX....XXXXXXXXX............XXXXX........XXXXXXXXX....XXXXXXXXXXXXXXXXXXXXXX....XXXXXXXX.............XXXXXXXXXXXXXXXXX.........XXXXXXXXX........XXXX.............XXXXX....XXXX.............    ",
"    .............XXXX....XXXXX....XXXX.....XXXXXXXXXXXXXXXXX....XXXXXXXXX............XXXXX........XXXXXXXXX....XXXXXXXXXXXXXXXXXXXXXX....XXXXXXXX.............XXXXXXXXXXXXXXXXX.........XXXXXXXXX........XXXX.............XXXXX....XXXX.............    ",
"    .............XXXX....XXXXX....XXXX.....XXXXXXXXXXXXXXXXX....XXXXXXXXX............XXXXX........XXXXXXXXX....XXXXXXXXXXXXXXXXXXXXXX....XXXXXXXX.............XXXXXXXXXXXXXXXXX.........XXXXXXXXX........XXXX.............XXXXX....XXXX.............    ",
"    .............XXXX....XXXXX....XXXX.....XXXXXXXXXXXXXXXXX....XXXXXXXXX............XXXXX........XXXXXXXXX....XXXXXXXXXXXXXXXXXXXXXX....XXXXXXXX.............XXXXXXXXXXXXXXXXX.........XXXXXXXXX........XXXX.............XXXXX....XXXX.............    ",
"    .............XXXX.............XXXX.....XXXXXXXXXXXXXXXXX....XXXXXXXXXXXXXXXXX....XXXXX........XXXXXXXXX....XXXXXXXXX.................XXXXXXXXXXXXXXXXX....XXXXX........XXXX.........XXXXXXXXX........XXXXXXXXXXXXX....XXXXX....XXXX.............    ",
"    .............XXXX.............XXXX.....XXXXXXXXXXXXXXXXX....XXXXXXXXXXXXXXXXX....XXXXX........XXXXXXXXX....XXXXXXXXX.................XXXXXXXXXXXXXXXXX....XXXXX........XXXX.........XXXXXXXXX........XXXXXXXXXXXXX....XXXXX....XXXX.............    ",
"    .............XXXX.............XXXX.....XXXXXXXXXXXXXXXXX....XXXXXXXXXXXXXXXXX....XXXXX........XXXXXXXXX....XXXXXXXXX.................XXXXXXXXXXXXXXXXX....XXXXX........XXXX.........XXXXXXXXX........XXXXXXXXXXXXX....XXXXX....XXXX.............    ",
"    .............XXXX.............XXXX.....XXXXXXXXXXXXXXXXX....XXXXXXXXXXXXXXXXX....XXXXX........XXXXXXXXX....XXXXXXXXX.................XXXXXXXXXXXXXXXXX....XXXXX........XXXX.........XXXXXXXXX........XXXXXXXXXXXXX....XXXXX....XXXX.............    ",
"    ................................................................................................................................................................................................................................................    ",
"    ................................................................................................................................................................................................................................................    ",
"    ................................................................................................................................................................................................................................................    ",
"    ................................................................................................................................................................................................................................................    ",
"    ................................................................................................................................................................................................................................................    ",
"    ................................................................................................................................................................................................................................................    ",
"    ................................................................................................................................................................................................................................................    ",
"    ................................................................................................................................................................................................................................................    ",
"    ................................................................................................................................................................................................................................................    ",
"oooo    ........................................................................................................................................................................................................................................    oooo",
"oooo    ........................................................................................................................................................................................................................................    oooo",
"oooo    ........................................................................................................................................................................................................................................    oooo",
"oooo    ........................................................................................................................................................................................................................................    oooo",
"oooooooo                                                                                                                                                                                                                                        oooooooo",
"oooooooo                                                                                                                                                                                                                                        oooooooo",
"oooooooo                                                                                                                                                                                                                                        oooooooo",
"oooooooo                                                                                                                                                                                                                                        oooooooo"
};
