/* XPM */
static char *playButton[] = {
/* columns rows colors chars-per-pixel */
"174 71 4 1 ",
"  c #000000",
". c #C80000",
"X c #FFF9F9",
"o c None",
/* pixels */
"oooooooooo                                                                                                                                                         ooooooooooo",
"oooooooooo                                                                                                                                                         ooooooooooo",
"oooooooooo                                                                                                                                                         ooooooooooo",
"oooooooooo                                                                                                                                                         ooooooooooo",
"oooooooooo                                                                                                                                                         ooooooooooo",
"oooooooooo                                                                                                                                                         ooooooooooo",
"ooooo     .........................................................................................................................................................      ooooo",
"ooooo     .........................................................................................................................................................      ooooo",
"ooooo     .........................................................................................................................................................      ooooo",
"ooooo     .........................................................................................................................................................      ooooo",
"ooooo     .........................................................................................................................................................      ooooo",
"     ....................................................................................................................................................................     ",
"     ....................................................................................................................................................................     ",
"     ....................................................................................................................................................................     ",
"     ....................................................................................................................................................................     ",
"     ....................................................................................................................................................................     ",
"     ....................................................................................................................................................................     ",
"     ....................................................................................................................................................................     ",
"     ....................................................................................................................................................................     ",
"     ....................................................................................................................................................................     ",
"     ....................................................................................................................................................................     ",
"     ....................................................................................................................................................................     ",
"     ...........................XXXXXXXXXXXXXXXXXXXXXXXXXXXX.....XXXXXXXXXXX................XXXXXXXXXXXXXXXXXXXXXX......XXXXX...........XXXXX............................     ",
"     ...........................XXXXXXXXXXXXXXXXXXXXXXXXXXXX.....XXXXXXXXXXX................XXXXXXXXXXXXXXXXXXXXXX......XXXXX...........XXXXX............................     ",
"     ...........................XXXXXXXXXXXXXXXXXXXXXXXXXXXX.....XXXXXXXXXXX................XXXXXXXXXXXXXXXXXXXXXX......XXXXX...........XXXXX............................     ",
"     ...........................XXXXXXXXXXXXXXXXXXXXXXXXXXXX.....XXXXXXXXXXX................XXXXXXXXXXXXXXXXXXXXXX......XXXXX...........XXXXX............................     ",
"     ...........................XXXXXXXXXXXXXXXXXXXXXXXXXXXX.....XXXXXXXXXXX................XXXXXXXXXXXXXXXXXXXXXX......XXXXX...........XXXXX............................     ",
"     ...........................XXXXXXXXXXX...........XXXXXX.....XXXXXXXXXXX................XXXXXX...........XXXXX......XXXXX...........XXXXX............................     ",
"     ...........................XXXXXXXXXXX...........XXXXXX.....XXXXXXXXXXX................XXXXXX...........XXXXX......XXXXX...........XXXXX............................     ",
"     ...........................XXXXXXXXXXX...........XXXXXX.....XXXXXXXXXXX................XXXXXX...........XXXXX......XXXXX...........XXXXX............................     ",
"     ...........................XXXXXXXXXXX...........XXXXXX.....XXXXXXXXXXX................XXXXXX...........XXXXX......XXXXX...........XXXXX............................     ",
"     ...........................XXXXXXXXXXX...........XXXXXX.....XXXXXXXXXXX................XXXXXX...........XXXXX......XXXXX...........XXXXX............................     ",
"     ...........................XXXXXXXXXXX...........XXXXXX.....XXXXXXXXXXX................XXXXXX...........XXXXX......XXXXX...........XXXXX............................     ",
"     ...........................XXXXXXXXXXX...........XXXXXX.....XXXXXXXXXXX................XXXXXX...........XXXXX......XXXXXXXXXXXXXXXXXXXXX............................     ",
"     ...........................XXXXXXXXXXX...........XXXXXX.....XXXXXXXXXXX................XXXXXX...........XXXXX......XXXXXXXXXXXXXXXXXXXXX............................     ",
"     ...........................XXXXXXXXXXX...........XXXXXX.....XXXXXXXXXXX................XXXXXX...........XXXXX......XXXXXXXXXXXXXXXXXXXXX............................     ",
"     ...........................XXXXXXXXXXX...........XXXXXX.....XXXXXXXXXXX................XXXXXX...........XXXXX......XXXXXXXXXXXXXXXXXXXXX............................     ",
"     ...........................XXXXXXXXXXX...........XXXXXX.....XXXXXXXXXXX................XXXXXX...........XXXXX......XXXXXXXXXXXXXXXXXXXXX............................     ",
"     ...........................XXXXXXXXXXXXXXXXXXXXXXXXXXXX.....XXXXXXXXXXX................XXXXXXXXXXXXXXXXXXXXXX...........XXXXXXXXXXX.................................     ",
"     ...........................XXXXXXXXXXXXXXXXXXXXXXXXXXXX.....XXXXXXXXXXX................XXXXXXXXXXXXXXXXXXXXXX...........XXXXXXXXXXX.................................     ",
"     ...........................XXXXXXXXXXXXXXXXXXXXXXXXXXXX.....XXXXXXXXXXX................XXXXXXXXXXXXXXXXXXXXXX...........XXXXXXXXXXX.................................     ",
"     ...........................XXXXXXXXXXXXXXXXXXXXXXXXXXXX.....XXXXXXXXXXX................XXXXXXXXXXXXXXXXXXXXXX...........XXXXXXXXXXX.................................     ",
"     ...........................XXXXXXXXXXXXXXXXXXXXXXXXXXXX.....XXXXXXXXXXX................XXXXXXXXXXXXXXXXXXXXXX...........XXXXXXXXXXX.................................     ",
"     ...........................XXXXXXXXXXXXXXXXXXXXXXXXXXXX.....XXXXXXXXXXX................XXXXXXXXXXXXXXXXXXXXXX...........XXXXXXXXXXX.................................     ",
"     ...........................XXXXXXXXXXX......................XXXXXXXXXXXXXXXXXXXXXX.....XXXXXX...........XXXXX...........XXXXXXXXXXX.................................     ",
"     ...........................XXXXXXXXXXX......................XXXXXXXXXXXXXXXXXXXXXX.....XXXXXX...........XXXXX...........XXXXXXXXXXX.................................     ",
"     ...........................XXXXXXXXXXX......................XXXXXXXXXXXXXXXXXXXXXX.....XXXXXX...........XXXXX...........XXXXXXXXXXX.................................     ",
"     ...........................XXXXXXXXXXX......................XXXXXXXXXXXXXXXXXXXXXX.....XXXXXX...........XXXXX...........XXXXXXXXXXX.................................     ",
"     ...........................XXXXXXXXXXX......................XXXXXXXXXXXXXXXXXXXXXX.....XXXXXX...........XXXXX...........XXXXXXXXXXX.................................     ",
"     ....................................................................................................................................................................     ",
"     ....................................................................................................................................................................     ",
"     ....................................................................................................................................................................     ",
"     ....................................................................................................................................................................     ",
"     ....................................................................................................................................................................     ",
"     ....................................................................................................................................................................     ",
"     ....................................................................................................................................................................     ",
"     ....................................................................................................................................................................     ",
"     ....................................................................................................................................................................     ",
"     ....................................................................................................................................................................     ",
"     ....................................................................................................................................................................     ",
"ooooo     .........................................................................................................................................................      ooooo",
"ooooo     .........................................................................................................................................................      ooooo",
"ooooo     .........................................................................................................................................................      ooooo",
"ooooo     .........................................................................................................................................................      ooooo",
"ooooo     .........................................................................................................................................................      ooooo",
"ooooo     .........................................................................................................................................................      ooooo",
"oooooooooo                                                                                                                                                         ooooooooooo",
"oooooooooo                                                                                                                                                         ooooooooooo",
"oooooooooo                                                                                                                                                         ooooooooooo",
"oooooooooo                                                                                                                                                         ooooooooooo",
"oooooooooo                                                                                                                                                         ooooooooooo"
};
