/* XPM */
static char *quitButton[] = {
/* columns rows colors chars-per-pixel */
"174 71 5 1 ",
"  c #000000",
". c #C80000",
"X c #F2FFFC",
"o c #FFF9F9",
"O c None",
/* pixels */
"OOOOOOOOOO                                                                                                                                                         OOOOOOOOOOO",
"OOOOOOOOOO                                                                                                                                                         OOOOOOOOOOO",
"OOOOOOOOOO                                                                                                                                                         OOOOOOOOOOO",
"OOOOOOOOOO                                                                                                                                                         OOOOOOOOOOO",
"OOOOOOOOOO                                                                                                                                                         OOOOOOOOOOO",
"OOOOOOOOOO                                                                                                                                                         OOOOOOOOOOO",
"OOOOO     .........................................................................................................................................................      OOOOO",
"OOOOO     .........................................................................................................................................................      OOOOO",
"OOOOO     .........................................................................................................................................................      OOOOO",
"OOOOO     .........................................................................................................................................................      OOOOO",
"OOOOO     .........................................................................................................................................................      OOOOO",
"     ....................................................................................................................................................................     ",
"     ....................................................................................................................................................................     ",
"     ....................................................................................................................................................................     ",
"     ....................................................................................................................................................................     ",
"     ....................................................................................................................................................................     ",
"     ....................................................................................................................................................................     ",
"     ....................................................................................................................................................................     ",
"     ....................................................................................................................................................................     ",
"     ....................................................................................................................................................................     ",
"     ....................................................................................................................................................................     ",
"     ....................................................................................................................................................................     ",
"     ......................XXXXXoooooooooooooooooooooooooooo.....ooooo.................ooooo......ooooooooooo.....ooooooooooooooooooooooooooooooooo......................     ",
"     ......................XXXXXoooooooooooooooooooooooooooo.....ooooo.................ooooo......ooooooooooo.....ooooooooooooooooooooooooooooooooo......................     ",
"     ......................XXXXXoooooooooooooooooooooooooooo.....ooooo.................ooooo......ooooooooooo.....ooooooooooooooooooooooooooooooooo......................     ",
"     ......................XXXXXoooooooooooooooooooooooooooo.....ooooo.................ooooo......ooooooooooo.....ooooooooooooooooooooooooooooooooo......................     ",
"     ......................XXXXXoooooooooooooooooooooooooooo.....ooooo.................ooooo......ooooooooooo.....ooooooooooooooooooooooooooooooooo......................     ",
"     ......................XXXXXoooooo...........XXXXXoooooo.....ooooo.................ooooo......ooooooooooo................ooooooooooo.................................     ",
"     ......................XXXXXoooooo...........XXXXXoooooo.....ooooo.................ooooo......ooooooooooo................ooooooooooo.................................     ",
"     ......................XXXXXoooooo...........XXXXXoooooo.....ooooo.................ooooo......ooooooooooo................ooooooooooo.................................     ",
"     ......................XXXXXoooooo...........XXXXXoooooo.....ooooo.................ooooo......ooooooooooo................ooooooooooo.................................     ",
"     ......................XXXXXoooooo...........XXXXXoooooo.....ooooo.................ooooo......ooooooooooo................ooooooooooo.................................     ",
"     ......................XXXXXoooooo...........XXXXXoooooo.....ooooo.................ooooo......ooooooooooo................ooooooooooo.................................     ",
"     ......................XXXXXoooooo...........XXXXXoooooo.....ooooo.................ooooo......ooooooooooo................ooooooooooo.................................     ",
"     ......................XXXXXoooooo...........XXXXXoooooo.....ooooo.................ooooo......ooooooooooo................ooooooooooo.................................     ",
"     ......................XXXXXoooooo...........XXXXXoooooo.....ooooo.................ooooo......ooooooooooo................ooooooooooo.................................     ",
"     ......................XXXXXoooooo...........XXXXXoooooo.....ooooo.................ooooo......ooooooooooo................ooooooooooo.................................     ",
"     ......................XXXXXoooooo...........XXXXXoooooo.....ooooo.................ooooo......ooooooooooo................ooooooooooo.................................     ",
"     ......................XXXXXoooooooooooooooooooooooooooo.....ooooooooooooooooooooooooooo......ooooooooooo................ooooooooooo.................................     ",
"     ......................XXXXXoooooooooooooooooooooooooooo.....ooooooooooooooooooooooooooo......ooooooooooo................ooooooooooo.................................     ",
"     ......................XXXXXoooooooooooooooooooooooooooo.....ooooooooooooooooooooooooooo......ooooooooooo................ooooooooooo.................................     ",
"     ......................XXXXXoooooooooooooooooooooooooooo.....ooooooooooooooooooooooooooo......ooooooooooo................ooooooooooo.................................     ",
"     ......................XXXXXoooooooooooooooooooooooooooo.....ooooooooooooooooooooooooooo......ooooooooooo................ooooooooooo.................................     ",
"     ......................XXXXXoooooooooooooooooooooooooooo.....ooooooooooooooooooooooooooo......ooooooooooo................ooooooooooo.................................     ",
"     ......................ooooooooooooooooooooooooooooooooo.....ooooooooooooooooooooooooooo......ooooooooooo................ooooooooooo.................................     ",
"     ......................ooooooooooooooooooooooooooooooooo.....ooooooooooooooooooooooooooo......ooooooooooo................ooooooooooo.................................     ",
"     ......................ooooooooooooooooooooooooooooooooo.....ooooooooooooooooooooooooooo......ooooooooooo................ooooooooooo.................................     ",
"     ......................ooooooooooooooooooooooooooooooooo.....ooooooooooooooooooooooooooo......ooooooooooo................ooooooooooo.................................     ",
"     ......................ooooooooooooooooooooooooooooooooo.....ooooooooooooooooooooooooooo......ooooooooooo................ooooooooooo.................................     ",
"     ......................................ooooooooooo...................................................................................................................     ",
"     ......................................ooooooooooo...................................................................................................................     ",
"     ......................................ooooooooooo...................................................................................................................     ",
"     ......................................ooooooooooo...................................................................................................................     ",
"     ......................................ooooooooooo...................................................................................................................     ",
"     ......................................ooooooooooo...................................................................................................................     ",
"     ....................................................................................................................................................................     ",
"     ....................................................................................................................................................................     ",
"     ....................................................................................................................................................................     ",
"     ....................................................................................................................................................................     ",
"     ....................................................................................................................................................................     ",
"OOOOO     .........................................................................................................................................................      OOOOO",
"OOOOO     .........................................................................................................................................................      OOOOO",
"OOOOO     .........................................................................................................................................................      OOOOO",
"OOOOO     .........................................................................................................................................................      OOOOO",
"OOOOO     .........................................................................................................................................................      OOOOO",
"OOOOO     .........................................................................................................................................................      OOOOO",
"OOOOOOOOOO                                                                                                                                                         OOOOOOOOOOO",
"OOOOOOOOOO                                                                                                                                                         OOOOOOOOOOO",
"OOOOOOOOOO                                                                                                                                                         OOOOOOOOOOO",
"OOOOOOOOOO                                                                                                                                                         OOOOOOOOOOO",
"OOOOOOOOOO                                                                                                                                                         OOOOOOOOOOO"
};
