/* XPM */
static char * mageDown_xpm[] = {
/* columns rows colors chars-per-pixel */
"100 100 12 1 ",
"  c None",
". c #000000",
"X c #001825",
"o c #002A3F",
"O c #004364",
"+ c #6A6A6A",
"@ c #7B7B7B",
"# c #FFBA00",
"$ c #005884",
"% c #868686",
"& c #FFC9A1",
"* c #FFFFFF",
/* pixels */
"                                                                                                    ",
"                                                                                                    ",
"                                                                                                    ",
"                                                                                                    ",
"                                                                                                    ",
"                                                                                                    ",
"                                                                                                    ",
"                                                                                                    ",
"                                                                                                    ",
"                                                                                                    ",
"                                                                                                    ",
"                                                                                                    ",
"                                                                                                    ",
"                                                                                                    ",
"                                                                                                    ",
"                                                                                                    ",
"                                                  XXX                                               ",
"                                                  XXX                                               ",
"                                                  XXX                                               ",
"                                                  oooooo                                            ",
"                                                  oooooo                                            ",
"                                                  oooooo                                            ",
"                                               oooooooooooo                                         ",
"                                               oooooooooooo                                         ",
"                                               oooooooooooo                                         ",
"                                               oooooooooooo                                         ",
"                                               oooooooooooo                                         ",
"                                               oooooooooooo                                         ",
"                                               oooooooooooooooo                                     ",
"                                               oooooooooooooooo                                     ",
"                                               oooooooooooooooo                                     ",
"                                            ###oooooooooooo####                                     ",
"                                            ###oooooooooooo####                                     ",
"                                            ###oooooooooooo####                                     ",
"                                      ooooooooo############oooooooooo                               ",
"                                      ooooooooo############oooooooooo                               ",
"                                      ooooooooo############oooooooooo                               ",
"                                  oooooooooooooooooooooooooooooooooooooo                            ",
"                                  oooooooooooooooooooooooooooooooooooooo                            ",
"                                  oooooooooooooooooooooooooooooooooooooo                            ",
"                                  oooooooooooooooooooooooooooooooooooooo                            ",
"                                      ooooooooooooooooooooooooooooooo                               ",
"                                      ooooooooooooooooooooooooooooooo                               ",
"                                      ooooooooooooooooooooooooooooooo                               ",
"                                            %%%***...&&&...****%%%                                  ",
"                                            %%%***...&&&...****%%%                                  ",
"                                            %%%***...&&&...****%%%                                  ",
"                                         %%%@@@&&&&&&&&&&&&&&&&@@@%%%                               ",
"                                         %%%@@@&&&&&&&&&&&&&&&&@@@%%%                               ",
"                                         %%%@@@&&&&&&&&&&&&&&&&@@@%%%                               ",
"                                         %%%%%%++++++++++++++++%%%%%%                               ",
"                                         %%%%%%++++++++++++++++%%%%%%                               ",
"                                         %%%%%%++++++++++++++++%%%%%%                               ",
"                                      OOOOOOOOO++++++++++++++++OOOOOOOOO                            ",
"                                      OOOOOOOOO++++++++++++++++OOOOOOOOO                            ",
"                                      OOOOOOOOO++++++++++++++++OOOOOOOOO                            ",
"                                      OOOOOOOOO$$$+++++++++$$$$OOOOOOOOO                            ",
"                                      OOOOOOOOO$$$+++++++++$$$$OOOOOOOOO                            ",
"                                      OOOOOOOOO$$$+++++++++$$$$OOOOOOOOO                            ",
"                                      OOOOOO$$$$$$$$$+++$$$$$$$$$$OOOOOO                            ",
"                                      OOOOOO$$$$$$$$$+++$$$$$$$$$$OOOOOO                            ",
"                                      OOOOOO$$$$$$$$$+++$$$$$$$$$$OOOOOO                            ",
"                                  OOOOOOO$$$$$$$$$$$$$$$$$$$$$$$$$$$$OOOOOO                         ",
"                                  OOOOOOO$$$$$$$$$$$$$$$$$$$$$$$$$$$$OOOOOO                         ",
"                                  OOOOOOO$$$$$$$$$$$$$$$$$$$$$$$$$$$$OOOOOO                         ",
"                                  OOOOOOO$$$$$$$$$$$$$$$$$$$$$$$$$$$$OOOOOO                         ",
"                                  OOOOOOO$$$$$$$$$$$$$$$$$$$$$$$$$$$$OOOOOO                         ",
"                                  OOOOOOO$$$$$$$$$$$$$$$$$$$$$$$$$$$$OOOOOO                         ",
"                                  OOOOOOO$$$$$$$$$$$$$$$$$$$$$$$$$$$$OOOOOO                         ",
"                                  OOOOOOO$$$$$$$$$$$$$$$$$$$$$$$$$$$$OOOOOO                         ",
"                                  OOOOOOO$$$$$$$$$$$$$$$$$$$$$$$$$$$$OOOOOO                         ",
"                                  OOOOOOO$$$$$$$$$$$$$$$$$$$$$$$$$$$$OOOOOO                         ",
"                                  OOOOOOO$$$$$$$$$$$$$$$$$$$$$$$$$$$$OOOOOO                         ",
"                                  OOOOOOO$$$$$$$$$$$$$$$$$$$$$$$$$$$$OOOOOO                         ",
"                                  OOOOOOO$$$$$$$$$$$$$$$$$$$$$$$$$$$$OOOOOO                         ",
"                                      OOO$$$$$$$$$$$$$$$$$$$$$$$$$$$$OOO                            ",
"                                      OOO$$$$$$$$$$$$$$$$$$$$$$$$$$$$OOO                            ",
"                                      OOO$$$$$$$$$$$$$$$$$$$$$$$$$$$$OOO                            ",
"                                            $$$$$$$$$$$$$$$$$$$$$$                                  ",
"                                            $$$$$$$$$$$$$$$$$$$$$$                                  ",
"                                            $$$$$$$$$$$$$$$$$$$$$$                                  ",
"                                                                                                    ",
"                                                                                                    ",
"                                                                                                    ",
"                                                                                                    ",
"                                                                                                    ",
"                                                                                                    ",
"                                                                                                    ",
"                                                                                                    ",
"                                                                                                    ",
"                                                                                                    ",
"                                                                                                    ",
"                                                                                                    ",
"                                                                                                    ",
"                                                                                                    ",
"                                                                                                    ",
"                                                                                                    ",
"                                                                                                    ",
"                                                                                                    ",
"                                                                                                    "
};
