/* XPM */
static char *mageLeft_xpm[] = {
/* columns rows colors chars-per-pixel */
"100 100 12 1 ",
"  c None",
". c #000000",
"X c #002A3F",
"o c #004364",
"O c #6A6A6A",
"+ c #7B7B7B",
"@ c #FFBA00",
"# c #005884",
"$ c #006DA4",
"% c #868686",
"& c #FFC9A1",
"* c #FFFFFF",
/* pixels */
"                                                                                                    ",
"                                                                                                    ",
"                                                                                                    ",
"                                                                                                    ",
"                                                                                                    ",
"                                                                                                    ",
"                                                                                                    ",
"                                                                                                    ",
"                                                                                                    ",
"                                                                                                    ",
"                                                                                                    ",
"                                                                                                    ",
"                                                                                                    ",
"                                                                                                    ",
"                                                                                                    ",
"                                                                                                    ",
"                                               XXXXXXXXXXXX                                         ",
"                                               XXXXXXXXXXXX                                         ",
"                                               XXXXXXXXXXXX                                         ",
"                                            XXXXXXXXX                                               ",
"                                            XXXXXXXXX                                               ",
"                                            XXXXXXXXX                                               ",
"                                         XXXXXXXXXXXX                                               ",
"                                         XXXXXXXXXXXX                                               ",
"                                         XXXXXXXXXXXX                                               ",
"                                         XXXXXXXXXXXX                                               ",
"                                         XXXXXXXXXXXX                                               ",
"                                         XXXXXXXXXXXX                                               ",
"                                      XXXXXXXXXXXXXXX                                               ",
"                                      XXXXXXXXXXXXXXX                                               ",
"                                      XXXXXXXXXXXXXXX                                               ",
"                                      @@@XXXXXXXXXXXX@@@                                            ",
"                                      @@@XXXXXXXXXXXX@@@                                            ",
"                                      @@@XXXXXXXXXXXX@@@                                            ",
"                               XXXXXXXXXX@@@@@@@@@@@@XXXXXXXXXX                                     ",
"                               XXXXXXXXXX@@@@@@@@@@@@XXXXXXXXXX                                     ",
"                               XXXXXXXXXX@@@@@@@@@@@@XXXXXXXXXX                                     ",
"                            XXXXXXXXXXXXXXXXXXXXXXXXXXXXXXXXXXXXXX                                  ",
"                            XXXXXXXXXXXXXXXXXXXXXXXXXXXXXXXXXXXXXX                                  ",
"                            XXXXXXXXXXXXXXXXXXXXXXXXXXXXXXXXXXXXXX                                  ",
"                            XXXXXXXXXXXXXXXXXXXXXXXXXXXXXXXXXXXXXX                                  ",
"                               XXXXXXXXXXXXXXXXXXXXXXXXXXXXXXXX                                     ",
"                               XXXXXXXXXXXXXXXXXXXXXXXXXXXXXXXX                                     ",
"                               XXXXXXXXXXXXXXXXXXXXXXXXXXXXXXXX                                     ",
"                                  %%%%&&&...***%%%%%%%%%                                            ",
"                                  %%%%&&&...***%%%%%%%%%                                            ",
"                                  %%%%&&&...***%%%%%%%%%                                            ",
"                                  %%%%&&&&&&&&&+++%%%%%%                                            ",
"                                  %%%%&&&&&&&&&+++%%%%%%                                            ",
"                                  %%%%&&&&&&&&&+++%%%%%%                                            ",
"                               %%%%%%%OOOOOOOOOOOO%%%%%%%%%                                         ",
"                               %%%%%%%OOOOOOOOOOOO%%%%%%%%%                                         ",
"                               %%%%%%%OOOOOOOOOOOO%%%%%%%%%                                         ",
"                                  $$$$OOOOOOOOO###%%%oooooo                                         ",
"                                  $$$$OOOOOOOOO###%%%oooooo                                         ",
"                                  $$$$OOOOOOOOO###%%%oooooo                                         ",
"                                  $$$$OOOOOO######ooooooooo                                         ",
"                                  $$$$OOOOOO######ooooooooo                                         ",
"                                  $$$$OOOOOO######ooooooooo                                         ",
"                               $$$###################oooooooooo                                     ",
"                               $$$###################oooooooooo                                     ",
"                               $$$###################oooooooooo                                     ",
"                               $$$###################oooooooooo                                     ",
"                               $$$###################oooooooooo                                     ",
"                               $$$###################oooooooooo                                     ",
"                               $$$###################oooooooooo                                     ",
"                               $$$###################oooooooooo                                     ",
"                               $$$###################oooooooooo                                     ",
"                               $$$###################oooooooooo                                     ",
"                               $$$######################ooooooooooooo                               ",
"                               $$$######################ooooooooooooo                               ",
"                               $$$######################ooooooooooooo                               ",
"                               $$$######################oooooooooooooooo                            ",
"                               $$$######################oooooooooooooooo                            ",
"                               $$$######################oooooooooooooooo                            ",
"                                  $$$$#########ooooooooooooooooooooooooo                            ",
"                                  $$$$#########ooooooooooooooooooooooooo                            ",
"                                  $$$$#########ooooooooooooooooooooooooo                            ",
"                                                                                                    ",
"                                                                                                    ",
"                                                                                                    ",
"                                                                                                    ",
"                                                                                                    ",
"                                                                                                    ",
"                                                                                                    ",
"                                                                                                    ",
"                                                                                                    ",
"                                                                                                    ",
"                                                                                                    ",
"                                                                                                    ",
"                                                                                                    ",
"                                                                                                    ",
"                                                                                                    ",
"                                                                                                    ",
"                                                                                                    ",
"                                                                                                    ",
"                                                                                                    ",
"                                                                                                    ",
"                                                                                                    ",
"                                                                                                    "
};
