/* XPM */
static char *mageRight_xpm[] = {
/* columns rows colors chars-per-pixel */
"100 100 12 1 ",
"  c None",
". c #000000",
"X c #002A3F",
"o c #004364",
"O c #6A6A6A",
"+ c #7B7B7B",
"@ c #FFBA00",
"# c #005884",
"$ c #006DA4",
"% c #868686",
"& c #FFC9A1",
"* c #FFFFFF",
/* pixels */
"                                                                                                    ",
"                                                                                                    ",
"                                                                                                    ",
"                                                                                                    ",
"                                                                                                    ",
"                                                                                                    ",
"                                                                                                    ",
"                                                                                                    ",
"                                                                                                    ",
"                                                                                                    ",
"                                                                                                    ",
"                                                                                                    ",
"                                                                                                    ",
"                                                                                                    ",
"                                                                                                    ",
"                                                                                                    ",
"                                         XXXXXXXXXXXX                                               ",
"                                         XXXXXXXXXXXX                                               ",
"                                         XXXXXXXXXXXX                                               ",
"                                               XXXXXXXXX                                            ",
"                                               XXXXXXXXX                                            ",
"                                               XXXXXXXXX                                            ",
"                                               XXXXXXXXXXXX                                         ",
"                                               XXXXXXXXXXXX                                         ",
"                                               XXXXXXXXXXXX                                         ",
"                                               XXXXXXXXXXXX                                         ",
"                                               XXXXXXXXXXXX                                         ",
"                                               XXXXXXXXXXXX                                         ",
"                                               XXXXXXXXXXXXXXXX                                     ",
"                                               XXXXXXXXXXXXXXXX                                     ",
"                                               XXXXXXXXXXXXXXXX                                     ",
"                                            @@@XXXXXXXXXXXX@@@@                                     ",
"                                            @@@XXXXXXXXXXXX@@@@                                     ",
"                                            @@@XXXXXXXXXXXX@@@@                                     ",
"                                      XXXXXXXXX@@@@@@@@@@@@XXXXXXXXXX                               ",
"                                      XXXXXXXXX@@@@@@@@@@@@XXXXXXXXXX                               ",
"                                      XXXXXXXXX@@@@@@@@@@@@XXXXXXXXXX                               ",
"                                  XXXXXXXXXXXXXXXXXXXXXXXXXXXXXXXXXXXXXX                            ",
"                                  XXXXXXXXXXXXXXXXXXXXXXXXXXXXXXXXXXXXXX                            ",
"                                  XXXXXXXXXXXXXXXXXXXXXXXXXXXXXXXXXXXXXX                            ",
"                                  XXXXXXXXXXXXXXXXXXXXXXXXXXXXXXXXXXXXXX                            ",
"                                      XXXXXXXXXXXXXXXXXXXXXXXXXXXXXXX                               ",
"                                      XXXXXXXXXXXXXXXXXXXXXXXXXXXXXXX                               ",
"                                      XXXXXXXXXXXXXXXXXXXXXXXXXXXXXXX                               ",
"                                            %%%%%%%%%***...&&&&%%%                                  ",
"                                            %%%%%%%%%***...&&&&%%%                                  ",
"                                            %%%%%%%%%***...&&&&%%%                                  ",
"                                            %%%%%%+++&&&&&&&&&&%%%                                  ",
"                                            %%%%%%+++&&&&&&&&&&%%%                                  ",
"                                            %%%%%%+++&&&&&&&&&&%%%                                  ",
"                                         %%%%%%%%%OOOOOOOOOOOOO%%%%%%                               ",
"                                         %%%%%%%%%OOOOOOOOOOOOO%%%%%%                               ",
"                                         %%%%%%%%%OOOOOOOOOOOOO%%%%%%                               ",
"                                         oooooo%%%###OOOOOOOOOO$$$                                  ",
"                                         oooooo%%%###OOOOOOOOOO$$$                                  ",
"                                         oooooo%%%###OOOOOOOOOO$$$                                  ",
"                                         ooooooooo######OOOOOOO$$$                                  ",
"                                         ooooooooo######OOOOOOO$$$                                  ",
"                                         ooooooooo######OOOOOOO$$$                                  ",
"                                      ooooooooo###################$$$                               ",
"                                      ooooooooo###################$$$                               ",
"                                      ooooooooo###################$$$                               ",
"                                      ooooooooo###################$$$                               ",
"                                      ooooooooo###################$$$                               ",
"                                      ooooooooo###################$$$                               ",
"                                      ooooooooo###################$$$                               ",
"                                      ooooooooo###################$$$                               ",
"                                      ooooooooo###################$$$                               ",
"                                      ooooooooo###################$$$                               ",
"                               ooooooooooooo######################$$$                               ",
"                               ooooooooooooo######################$$$                               ",
"                               ooooooooooooo######################$$$                               ",
"                            oooooooooooooooo######################$$$                               ",
"                            oooooooooooooooo######################$$$                               ",
"                            oooooooooooooooo######################$$$                               ",
"                            ooooooooooooooooooooooooo##########$$$                                  ",
"                            ooooooooooooooooooooooooo##########$$$                                  ",
"                            ooooooooooooooooooooooooo##########$$$                                  ",
"                                                                                                    ",
"                                                                                                    ",
"                                                                                                    ",
"                                                                                                    ",
"                                                                                                    ",
"                                                                                                    ",
"                                                                                                    ",
"                                                                                                    ",
"                                                                                                    ",
"                                                                                                    ",
"                                                                                                    ",
"                                                                                                    ",
"                                                                                                    ",
"                                                                                                    ",
"                                                                                                    ",
"                                                                                                    ",
"                                                                                                    ",
"                                                                                                    ",
"                                                                                                    ",
"                                                                                                    ",
"                                                                                                    ",
"                                                                                                    "
};
